# Blender 4.4.1
# www.blender.org
mtllib cube.mtl
o Cube
v 5.460001 2.770000 -6.340000
v 5.460001 -2.770000 -6.340000
v 5.460001 2.770000 6.340000
v 5.460001 -2.770000 6.340000
v -5.460001 2.770000 -6.340000
v -5.460001 -2.770000 -6.340000
v -5.460001 2.770000 6.340000
v -5.460001 -2.770000 6.340000
v 5.207804 2.642061 -6.047173
v 5.207823 -2.642057 -6.047162
v 5.207823 2.642057 6.047162
v 5.207804 -2.642061 6.047173
v -5.207823 2.642057 -6.047162
v -5.207804 -2.642061 -6.047173
v -5.207804 2.642061 6.047173
v -5.207823 -2.642057 6.047162
vn -0.0000 1.0000 -0.0000
vn -0.0000 -0.0000 1.0000
vn -1.0000 -0.0000 -0.0000
vn -0.0000 -1.0000 -0.0000
vn 1.0000 -0.0000 -0.0000
vn -0.0000 -0.0000 -1.0000
vt 0.875000 0.500000
vt 0.625000 0.750000
vt 0.625000 0.500000
vt 0.375000 1.000000
vt 0.375000 0.750000
vt 0.625000 0.000000
vt 0.375000 0.250000
vt 0.375000 0.000000
vt 0.375000 0.500000
vt 0.125000 0.750000
vt 0.125000 0.500000
vt 0.625000 0.250000
vt 0.875000 0.750000
vt 0.625000 1.000000
s 0
usemtl Material
f 5/1/1 3/2/1 1/3/1
f 3/2/2 8/4/2 4/5/2
f 7/6/3 6/7/3 8/8/3
f 2/9/4 8/10/4 6/11/4
f 1/3/5 4/5/5 2/9/5
f 5/12/6 2/9/6 6/7/6
f 5/1/1 7/13/1 3/2/1
f 3/2/2 7/14/2 8/4/2
f 7/6/3 5/12/3 6/7/3
f 2/9/4 4/5/4 8/10/4
f 1/3/5 3/2/5 4/5/5
f 5/12/6 1/3/6 2/9/6
f 13/1/4 9/3/4 11/2/4
f 11/2/6 12/5/6 16/4/6
f 15/6/5 16/8/5 14/7/5
f 10/9/1 14/11/1 16/10/1
f 9/3/3 10/9/3 12/5/3
f 13/12/2 14/7/2 10/9/2
f 13/1/4 11/2/4 15/13/4
f 11/2/6 16/4/6 15/14/6
f 15/6/5 14/7/5 13/12/5
f 10/9/1 16/10/1 12/5/1
f 9/3/3 12/5/3 11/2/3
f 13/12/2 10/9/2 9/3/2
