# Blender 4.4.1
# www.blender.org
mtllib konyvespolc.mtl
o Wall_Book_Shelf
v -0.685321 0.135989 0.150075
v 0.685321 0.135989 0.150075
v -0.685321 0.521746 0.150075
v -0.685321 0.537271 0.150075
v -0.685321 0.915265 0.150075
v -0.685321 0.930790 0.150075
v -0.685321 1.308783 0.150075
v -0.685321 1.324308 0.150075
v -0.685321 1.702302 0.150075
v -0.685321 1.717827 0.150075
v 0.685321 1.717827 0.150075
v 0.685321 1.702302 0.150075
v 0.685321 1.324308 0.150075
v 0.685321 1.308783 0.150075
v 0.685321 0.930789 0.150075
v 0.685321 0.915264 0.150075
v 0.685321 0.537271 0.150075
v 0.685321 0.521746 0.150075
v 0.661451 1.702302 -0.150075
v -0.661451 1.702302 -0.150075
v -0.661451 1.717827 -0.150075
v 0.661451 1.717827 -0.150075
v 0.661451 1.308783 -0.150075
v -0.661451 1.308783 -0.150075
v -0.661451 1.324308 -0.150075
v 0.661451 1.324308 -0.150075
v 0.661451 0.915264 -0.150075
v -0.661451 0.915264 -0.150075
v -0.661451 0.930789 -0.150075
v 0.661451 0.930789 -0.150075
v 0.661451 0.521746 -0.150075
v -0.661451 0.521746 -0.150075
v -0.661451 0.537271 -0.150075
v 0.661451 0.537271 -0.150075
v 0.661451 0.135989 -0.150075
v -0.661451 0.135989 -0.150075
v 0.661451 2.103584 0.150075
v -0.661451 2.103584 0.150075
v 0.685321 2.086506 0.150075
v -0.685321 2.086506 0.150075
v 0.661451 2.086506 -0.150075
v -0.661451 2.086506 -0.150075
v 0.685321 0.120636 0.150075
v -0.685321 0.120636 0.150075
v 0.661451 0.120636 -0.150075
v -0.661451 0.120636 -0.150075
v -0.682045 0.000000 0.150075
v -0.685321 0.002000 0.150075
v -0.684362 0.000586 0.150075
v -0.685321 2.101244 0.150075
v -0.682521 2.103584 0.150075
v -0.684501 2.102899 0.150075
v -0.685321 0.000464 -0.148921
v -0.682521 0.002000 -0.150075
v -0.682521 -0.000000 -0.149075
v -0.684495 0.001280 -0.149739
v -0.684138 0.000530 -0.149614
v -0.682521 0.000586 -0.149782
v -0.684519 0.000140 -0.148968
v -0.682521 2.103584 -0.149075
v -0.682524 2.101582 -0.150075
v -0.685321 2.101583 -0.149075
v -0.682522 2.102998 -0.149782
v -0.684138 2.102738 -0.149653
v -0.684502 2.101583 -0.149782
v -0.684501 2.102998 -0.149075
v 0.685321 0.002000 0.150075
v 0.682521 0.000000 0.150075
v 0.684501 0.000586 0.150075
v 0.682045 2.103584 0.150075
v 0.685321 2.101583 0.150075
v 0.684362 2.102998 0.150075
v 0.685321 0.002000 -0.149075
v 0.682521 -0.000000 -0.149075
v 0.684879 0.002238 -0.150075
v 0.684501 0.000586 -0.149075
v 0.684624 0.000905 -0.149652
v 0.683642 0.000653 -0.149780
v 0.685188 0.002167 -0.149787
v 0.685321 2.101583 -0.149075
v 0.682521 2.101583 -0.150075
v 0.682521 2.103584 -0.149075
v 0.684501 2.101583 -0.149782
v 0.684138 2.102738 -0.149653
v 0.682521 2.102998 -0.149782
v 0.684501 2.102998 -0.149075
v -0.682521 0.135989 -0.150075
v -0.685321 0.135989 -0.149075
v -0.684501 0.135989 -0.149782
v 0.685321 0.135989 -0.149075
v 0.682521 0.135989 -0.150075
v 0.684501 0.135989 -0.149782
v -0.682521 1.702302 -0.150075
v -0.685321 1.702302 -0.149075
v -0.684501 1.702302 -0.149782
v -0.685321 1.717827 -0.149075
v -0.682521 1.717827 -0.150075
v -0.684501 1.717827 -0.149782
v -0.682521 1.308783 -0.150075
v -0.685321 1.308783 -0.149075
v -0.684501 1.308783 -0.149782
v -0.685321 1.324308 -0.149075
v -0.682521 1.324308 -0.150075
v -0.684501 1.324308 -0.149782
v -0.682521 0.915264 -0.150075
v -0.685321 0.915264 -0.149075
v -0.684501 0.915264 -0.149782
v -0.685321 0.930789 -0.149075
v -0.682521 0.930789 -0.150075
v -0.684501 0.930789 -0.149782
v -0.682521 0.521746 -0.150075
v -0.685321 0.521746 -0.149075
v -0.684501 0.521746 -0.149782
v -0.685321 0.537271 -0.149075
v -0.682521 0.537271 -0.150075
v -0.684501 0.537271 -0.149782
v 0.685321 1.702302 -0.149075
v 0.682521 1.702302 -0.150075
v 0.684501 1.702302 -0.149782
v 0.682521 1.717827 -0.150075
v 0.685321 1.717827 -0.149075
v 0.684501 1.717827 -0.149782
v 0.685321 1.308783 -0.149075
v 0.682521 1.308783 -0.150075
v 0.684501 1.308783 -0.149782
v 0.682521 1.324308 -0.150075
v 0.685321 1.324308 -0.149075
v 0.684501 1.324308 -0.149782
v 0.685321 0.915264 -0.149075
v 0.682521 0.915264 -0.150075
v 0.684501 0.915264 -0.149782
v 0.682521 0.930789 -0.150075
v 0.685321 0.930789 -0.149075
v 0.684501 0.930789 -0.149782
v 0.685321 0.521746 -0.149075
v 0.682521 0.521746 -0.150075
v 0.684501 0.521746 -0.149782
v 0.682521 0.537271 -0.150075
v 0.685321 0.537271 -0.149075
v 0.684501 0.537271 -0.149782
v 0.658192 1.702302 0.149340
v 0.661451 1.700302 0.151075
v 0.658651 1.704302 0.150075
v 0.660499 1.701713 0.150264
v 0.660164 1.702302 0.150142
v 0.660631 1.702302 0.150368
v 0.658391 1.702881 0.149855
v -0.658651 1.704302 0.150075
v -0.661451 1.700782 0.151075
v -0.658174 1.702302 0.149350
v -0.660631 1.702542 0.150368
v -0.660160 1.702404 0.150163
v -0.660499 1.701851 0.150363
v -0.658379 1.702880 0.149858
v -0.658192 1.717827 0.149340
v -0.661451 1.719827 0.151075
v -0.658651 1.715827 0.150075
v -0.660499 1.718416 0.150263
v -0.660164 1.717827 0.150142
v -0.660631 1.717827 0.150368
v -0.658391 1.717249 0.149855
v 0.658651 1.715827 0.150075
v 0.661451 1.719319 0.151075
v 0.658174 1.717827 0.149350
v 0.660631 1.717573 0.150368
v 0.660160 1.717720 0.150164
v 0.660499 1.718270 0.150369
v 0.658379 1.717249 0.149858
v 0.658651 0.135989 0.150075
v 0.661451 0.137989 0.150075
v 0.660631 0.136575 0.150075
v -0.661451 0.137989 0.150075
v -0.658192 0.135989 0.150075
v -0.660496 0.136575 0.150075
v -0.661451 0.002000 0.151075
v -0.664251 0.000000 0.149075
v -0.658344 0.000283 0.150075
v -0.662271 0.000586 0.150075
v -0.661142 0.000490 0.150075
v -0.660118 0.000083 0.149783
v -0.660544 0.001181 0.150369
v 0.664726 0.000000 0.149075
v 0.661451 0.002000 0.151075
v 0.658356 0.000349 0.150075
v 0.662407 0.000589 0.150142
v 0.661231 0.000504 0.150089
v 0.660548 0.001211 0.150369
v 0.660293 0.000103 0.149783
v 0.661451 2.103584 -0.149075
v 0.661451 2.101583 -0.150075
v 0.661451 2.102998 -0.149782
v -0.661451 2.101582 -0.150075
v -0.661451 2.103584 -0.149075
v -0.661451 2.102998 -0.149782
v 0.661451 0.002229 -0.150075
v 0.661451 -0.000000 -0.149075
v 0.661451 0.000653 -0.149782
v -0.661451 -0.000000 -0.149075
v -0.661451 0.002000 -0.150075
v -0.661451 0.000586 -0.149782
v 0.658651 1.322308 0.150075
v 0.661451 1.325829 0.151075
v 0.658174 1.324308 0.149350
v 0.660631 1.324069 0.150368
v 0.660160 1.324207 0.150163
v 0.660499 1.324759 0.150363
v 0.658379 1.323730 0.149858
v -0.658192 1.324308 0.149340
v -0.661451 1.326308 0.151075
v -0.658651 1.322308 0.150075
v -0.660499 1.324897 0.150263
v -0.660164 1.324308 0.150142
v -0.660631 1.324308 0.150368
v -0.658391 1.323730 0.149855
v -0.661451 1.307263 0.151075
v -0.658174 1.308783 0.149350
v -0.658651 1.310783 0.150075
v -0.660499 1.308332 0.150363
v -0.660160 1.308885 0.150163
v -0.658379 1.309361 0.149858
v -0.660631 1.309023 0.150368
v 0.658192 1.308783 0.149340
v 0.661451 1.306783 0.151075
v 0.658651 1.310783 0.150075
v 0.660499 1.308195 0.150263
v 0.660164 1.308783 0.150142
v 0.660631 1.308783 0.150368
v 0.658391 1.309362 0.149855
v 0.658651 0.928789 0.150075
v 0.661451 0.932310 0.151075
v 0.658174 0.930789 0.149350
v 0.660631 0.930550 0.150368
v 0.660160 0.930688 0.150163
v 0.660499 0.931241 0.150363
v 0.658379 0.930211 0.149858
v -0.658192 0.930790 0.149340
v -0.661451 0.932790 0.151075
v -0.658651 0.928790 0.150075
v -0.660499 0.931378 0.150263
v -0.660164 0.930789 0.150142
v -0.660631 0.930790 0.150368
v -0.658391 0.930211 0.149855
v 0.658192 0.915264 0.149340
v 0.661451 0.913265 0.151075
v 0.658651 0.917264 0.150075
v 0.660499 0.914676 0.150263
v 0.660164 0.915264 0.150142
v 0.660631 0.915264 0.150368
v 0.658391 0.915843 0.149855
v -0.658651 0.917265 0.150075
v -0.661451 0.913744 0.151075
v -0.658174 0.915265 0.149350
v -0.660631 0.915504 0.150368
v -0.660160 0.915366 0.150163
v -0.660499 0.914813 0.150363
v -0.658379 0.915843 0.149858
v -0.658192 0.537271 0.149340
v -0.661451 0.539271 0.151075
v -0.658651 0.535271 0.150075
v -0.660499 0.537860 0.150264
v -0.660164 0.537271 0.150142
v -0.660631 0.537271 0.150368
v -0.658391 0.536692 0.149855
v 0.658651 0.535271 0.150075
v 0.661451 0.538791 0.151075
v 0.658174 0.537271 0.149350
v 0.660631 0.537031 0.150368
v 0.660160 0.537169 0.150163
v 0.660499 0.537722 0.150363
v 0.658379 0.536692 0.149858
v 0.658192 0.521746 0.149340
v 0.661451 0.519746 0.151075
v 0.658651 0.523746 0.150075
v 0.660499 0.521157 0.150263
v 0.660164 0.521746 0.150142
v 0.660631 0.521746 0.150368
v 0.658391 0.522324 0.149855
v -0.658651 0.523746 0.150075
v -0.661451 0.520202 0.151075
v -0.658174 0.521746 0.149350
v -0.660631 0.521974 0.150368
v -0.660160 0.521842 0.150162
v -0.660499 0.521288 0.150358
v -0.658379 0.522324 0.149858
v -0.685321 2.086506 -0.149075
v -0.682521 2.086506 -0.150075
v -0.684501 2.086506 -0.149782
v 0.682521 2.086506 -0.150075
v 0.685321 2.086506 -0.149075
v 0.684501 2.086506 -0.149782
v -0.661451 2.084506 0.150075
v -0.658651 2.086506 0.150075
v -0.660631 2.085920 0.150075
v 0.658192 2.086506 0.150075
v 0.661451 2.084506 0.150075
v 0.660496 2.085920 0.150075
v -0.685321 0.120636 -0.148927
v -0.682521 0.120636 -0.150075
v -0.684501 0.120636 -0.149739
v 0.682521 0.120636 -0.150075
v 0.685321 0.120636 -0.149075
v 0.684501 0.120636 -0.149782
v -0.658356 0.120286 0.150075
v -0.658651 0.120636 0.151075
v -0.661451 0.118636 0.151075
v -0.658444 0.120531 0.150363
v -0.660194 0.120132 0.150497
v -0.660631 0.120050 0.151075
v -0.660548 0.119425 0.150369
v 0.661451 0.118636 0.151075
v 0.658651 0.120636 0.151075
v 0.658344 0.120352 0.150075
v 0.660631 0.120050 0.151075
v 0.660190 0.120146 0.150497
v 0.658435 0.120551 0.150364
v 0.660544 0.119455 0.150369
v 0.658192 1.324308 -0.141608
v 0.661451 1.325809 -0.141182
v 0.658094 1.325314 -0.142343
v 0.660512 1.324759 -0.141356
v 0.660051 1.324839 -0.141935
v 0.660468 1.325565 -0.142002
v 0.658134 1.324610 -0.142131
v -0.658071 1.325274 -0.142343
v -0.661451 1.326308 -0.141188
v -0.658174 1.324308 -0.141619
v -0.660463 1.325801 -0.142004
v -0.660043 1.324937 -0.141943
v -0.660496 1.324899 -0.141388
v -0.658113 1.324598 -0.142134
v -0.658192 1.308783 -0.141608
v -0.661451 1.307282 -0.141182
v -0.658094 1.307778 -0.142343
v -0.660512 1.308333 -0.141356
v -0.660051 1.308253 -0.141935
v -0.660468 1.307527 -0.142002
v -0.658134 1.308482 -0.142131
v 0.658071 1.307818 -0.142343
v 0.661451 1.306783 -0.141188
v 0.658174 1.308783 -0.141619
v 0.660463 1.307291 -0.142004
v 0.660043 1.308155 -0.141943
v 0.660496 1.308192 -0.141388
v 0.658113 1.308494 -0.142134
v 0.658071 0.914299 -0.142343
v 0.661451 0.913265 -0.141188
v 0.658174 0.915264 -0.141619
v 0.660463 0.913772 -0.142004
v 0.660043 0.914636 -0.141943
v 0.660496 0.914673 -0.141388
v 0.658113 0.914975 -0.142134
v -0.658192 0.915265 -0.141608
v -0.661451 0.913763 -0.141182
v -0.658094 0.914259 -0.142343
v -0.660512 0.914814 -0.141356
v -0.660051 0.914734 -0.141935
v -0.660468 0.914008 -0.142002
v -0.658134 0.914963 -0.142131
v -0.661451 0.539271 -0.141188
v -0.658174 0.537271 -0.141619
v -0.658071 0.538236 -0.142343
v -0.660496 0.537862 -0.141388
v -0.660043 0.537899 -0.141943
v -0.658113 0.537560 -0.142134
v -0.660463 0.538764 -0.142004
v 0.658192 0.537271 -0.141608
v 0.661451 0.538772 -0.141182
v 0.658094 0.538276 -0.142343
v 0.660512 0.537721 -0.141356
v 0.660051 0.537801 -0.141935
v 0.660468 0.538527 -0.142002
v 0.658134 0.537572 -0.142131
v 0.658071 1.701337 -0.142343
v 0.661451 1.700302 -0.141188
v 0.658174 1.702302 -0.141619
v 0.660463 1.700809 -0.142004
v 0.660043 1.701674 -0.141943
v 0.660496 1.701711 -0.141388
v 0.658113 1.702013 -0.142134
v -0.658192 1.702302 -0.141608
v -0.661451 1.700801 -0.141182
v -0.658094 1.701297 -0.142343
v -0.660512 1.701852 -0.141356
v -0.660051 1.701772 -0.141935
v -0.660468 1.701046 -0.142002
v -0.658134 1.702001 -0.142131
v 0.658651 0.135989 -0.141608
v 0.661451 0.137515 -0.141187
v 0.658094 0.137014 -0.142343
v 0.660639 0.136443 -0.141373
v 0.660142 0.136529 -0.141939
v 0.660468 0.137268 -0.142004
v 0.658329 0.136296 -0.142131
v -0.658071 0.136975 -0.142343
v -0.661451 0.137989 -0.141193
v -0.658174 0.135989 -0.141619
v -0.660463 0.137493 -0.142005
v -0.660043 0.136622 -0.141944
v -0.660496 0.136580 -0.141391
v -0.658113 0.136285 -0.142134
v 0.658071 0.520760 -0.142343
v 0.661451 0.519746 -0.141193
v 0.658174 0.521746 -0.141619
v 0.660463 0.520242 -0.142005
v 0.660043 0.521113 -0.141944
v 0.660496 0.521154 -0.141391
v 0.658113 0.521450 -0.142134
v -0.658192 0.521746 -0.141608
v -0.661451 0.520220 -0.141187
v -0.658094 0.520721 -0.142343
v -0.660512 0.521288 -0.141360
v -0.660051 0.521206 -0.141936
v -0.660468 0.520467 -0.142004
v -0.658134 0.521439 -0.142131
v -0.658095 2.085523 -0.142343
v -0.658651 2.086506 -0.141608
v -0.661451 2.085035 -0.141176
v -0.658326 2.086211 -0.142131
v -0.660141 2.085987 -0.141936
v -0.660640 2.086067 -0.141364
v -0.660468 2.085276 -0.142001
v -0.661451 1.719827 -0.141183
v -0.658174 1.717827 -0.141619
v -0.658073 1.718769 -0.142343
v -0.660496 1.718418 -0.141386
v -0.660043 1.718451 -0.141942
v -0.658113 1.718110 -0.142134
v -0.660463 1.719307 -0.142002
v 0.658192 1.717827 -0.141608
v 0.661451 1.719298 -0.141176
v 0.658095 1.718809 -0.142343
v 0.660513 1.718269 -0.141351
v 0.660051 1.718346 -0.141933
v 0.660468 1.719057 -0.142001
v 0.658134 1.718122 -0.142131
v 0.658192 0.930789 -0.141608
v 0.661451 0.932290 -0.141182
v 0.658094 0.931795 -0.142343
v 0.660512 0.931240 -0.141356
v 0.660051 0.931320 -0.141935
v 0.660468 0.932046 -0.142002
v 0.658134 0.931091 -0.142131
v -0.658071 0.931755 -0.142343
v -0.661451 0.932790 -0.141188
v -0.658174 0.930790 -0.141619
v -0.660463 0.932282 -0.142004
v -0.660043 0.931418 -0.141943
v -0.660496 0.931381 -0.141388
v -0.658113 0.931079 -0.142134
v 0.661451 2.084506 -0.141183
v 0.658174 2.086506 -0.141619
v 0.658073 2.085564 -0.142343
v 0.660496 2.085914 -0.141386
v 0.660043 2.085882 -0.141942
v 0.658113 2.086223 -0.142134
v 0.660463 2.085026 -0.142002
v 0.685321 0.120636 0.151208
v 0.682521 0.120636 0.152208
v 0.684501 0.120636 0.151915
v 0.685321 0.002000 0.151208
v 0.682521 0.002229 0.152208
v 0.682521 0.000000 0.151886
v 0.684501 0.002114 0.151915
v 0.684138 0.000894 0.151928
v 0.682521 0.000636 0.152110
v 0.684501 0.000586 0.151547
v -0.685321 0.120636 0.151208
v -0.682521 0.120636 0.152208
v -0.684501 0.120636 0.151915
v -0.682521 0.135989 0.152208
v -0.685321 0.135989 0.151208
v -0.684501 0.135989 0.151915
v 0.685321 0.537271 0.151208
v 0.682521 0.537271 0.152208
v 0.684501 0.537271 0.151915
v 0.682521 0.521746 0.152208
v 0.685321 0.521746 0.151208
v 0.684501 0.521746 0.151915
v 0.685321 0.930789 0.151208
v 0.682521 0.930789 0.152208
v 0.684501 0.930789 0.151915
v 0.682521 0.915264 0.152208
v 0.685321 0.915264 0.151208
v 0.684501 0.915264 0.151915
v 0.685321 1.324308 0.151208
v 0.682521 1.324308 0.152208
v 0.684501 1.324308 0.151915
v 0.682521 1.308783 0.152208
v 0.685321 1.308783 0.151208
v 0.684501 1.308783 0.151915
v 0.685321 1.717827 0.151208
v 0.682521 1.717827 0.152208
v 0.684501 1.717827 0.151915
v 0.682521 1.702302 0.152208
v 0.685321 1.702302 0.151208
v 0.684501 1.702302 0.151915
v -0.685321 0.521746 0.151208
v -0.682521 0.521746 0.152208
v -0.684501 0.521746 0.151915
v -0.682521 0.537271 0.152208
v -0.685321 0.537271 0.151208
v -0.684501 0.537271 0.151915
v -0.685321 0.915265 0.151208
v -0.682521 0.915265 0.152208
v -0.684501 0.915265 0.151915
v -0.682521 0.930790 0.152208
v -0.685321 0.930790 0.151208
v -0.684501 0.930790 0.151915
v -0.685321 1.308783 0.151208
v -0.682521 1.308783 0.152208
v -0.684501 1.308783 0.151915
v -0.682521 1.324308 0.152208
v -0.685321 1.324308 0.151208
v -0.684501 1.324308 0.151915
v -0.685321 1.702302 0.151208
v -0.682521 1.702302 0.152208
v -0.684501 1.702302 0.151915
v -0.682521 1.717827 0.152208
v -0.685321 1.717827 0.151208
v -0.684501 1.717827 0.151915
v 0.682521 0.135989 0.152208
v 0.685321 0.135989 0.151208
v 0.684501 0.135989 0.151915
v 0.682521 2.086506 0.152208
v 0.685321 2.086506 0.151208
v 0.684501 2.086506 0.151915
v 0.682027 2.103584 0.151913
v 0.682524 2.101582 0.152208
v 0.685321 2.101583 0.151208
v 0.682185 2.103013 0.152118
v 0.684016 2.102738 0.151929
v 0.684502 2.101583 0.151915
v 0.684362 2.102993 0.151535
v -0.682521 2.086506 0.152208
v -0.685321 2.086506 0.151208
v -0.684501 2.086506 0.151915
v -0.661451 1.324308 0.151208
v -0.664251 1.324308 0.152208
v -0.662271 1.324308 0.151915
v -0.664251 1.308783 0.152208
v -0.661451 1.308783 0.151208
v -0.662271 1.308783 0.151915
v 0.661451 1.308783 0.151208
v 0.664251 1.308783 0.152208
v 0.662271 1.308783 0.151915
v 0.664251 1.324308 0.152208
v 0.661451 1.324308 0.151208
v 0.662271 1.324308 0.151915
v -0.661451 0.915265 0.151208
v -0.664251 0.915265 0.152208
v -0.662271 0.915265 0.151915
v -0.664251 0.537271 0.152208
v -0.661451 0.537271 0.151208
v -0.662271 0.537271 0.151915
v 0.661451 0.537271 0.151208
v 0.664251 0.537271 0.152208
v 0.662271 0.537271 0.151915
v 0.664251 0.915264 0.152208
v 0.661451 0.915264 0.151208
v 0.662271 0.915264 0.151915
v -0.661451 1.702302 0.151208
v -0.664251 1.702302 0.152208
v -0.662271 1.702302 0.151915
v 0.664251 1.702302 0.152208
v 0.661451 1.702302 0.151208
v 0.662271 1.702302 0.151915
v 0.664251 0.133989 0.152208
v 0.661451 0.137989 0.151208
v 0.658651 0.135989 0.151208
v 0.662271 0.135989 0.151915
v 0.661451 0.135989 0.151785
v 0.660631 0.136575 0.151208
v 0.661451 0.135404 0.151915
v -0.658651 0.135989 0.151208
v -0.661451 0.137989 0.151208
v -0.664251 0.133989 0.152208
v -0.660631 0.136575 0.151208
v -0.661451 0.135989 0.151785
v -0.662271 0.135989 0.151915
v -0.661451 0.135404 0.151915
v -0.658651 0.120636 0.151208
v -0.664251 0.122636 0.152208
v -0.661451 0.118636 0.151208
v -0.661451 0.121221 0.151915
v -0.661451 0.120636 0.151785
v -0.662271 0.120636 0.151915
v -0.660631 0.120050 0.151208
v -0.661451 0.002000 0.151208
v -0.664251 0.002229 0.152208
v -0.664251 0.000000 0.151886
v -0.662271 0.002114 0.151915
v -0.662634 0.000894 0.151928
v -0.664251 0.000636 0.152110
v -0.662271 0.000586 0.151547
v 0.661984 0.122636 0.152208
v 0.658651 0.120636 0.151208
v 0.661451 0.118636 0.151208
v 0.660317 0.121221 0.151915
v 0.660972 0.120796 0.151785
v 0.660631 0.120050 0.151208
v 0.661608 0.121411 0.151916
v -0.661451 0.521746 0.151208
v -0.664251 0.521746 0.152208
v -0.662271 0.521746 0.151915
v 0.664251 0.521746 0.152208
v 0.661451 0.521746 0.151208
v 0.662271 0.521746 0.151915
v 0.661451 2.101582 0.152208
v 0.661451 2.103584 0.151208
v 0.661451 2.102998 0.151915
v -0.661451 2.103584 0.151208
v -0.661451 2.101583 0.152208
v -0.661451 2.102998 0.151915
v -0.658651 2.086506 0.151208
v -0.664251 2.088506 0.152208
v -0.661451 2.084506 0.151208
v -0.661451 2.087092 0.151915
v -0.661451 2.086506 0.151785
v -0.662271 2.086506 0.151915
v -0.660631 2.085920 0.151208
v -0.664251 1.717827 0.152208
v -0.661451 1.717827 0.151208
v -0.662271 1.717827 0.151915
v 0.661451 2.084506 0.151208
v 0.664251 2.088506 0.152208
v 0.658651 2.086506 0.151208
v 0.662271 2.086506 0.151915
v 0.661451 2.086506 0.151785
v 0.661451 2.087092 0.151915
v 0.660631 2.085920 0.151208
v -0.661451 0.930790 0.151208
v -0.664251 0.930790 0.152208
v -0.662271 0.930790 0.151915
v 0.664251 0.930789 0.152208
v 0.661451 0.930789 0.151208
v 0.662271 0.930789 0.151915
v 0.664251 1.717827 0.152208
v 0.661451 1.717827 0.151208
v 0.662271 1.717827 0.151915
v -0.682521 2.103584 0.151208
v -0.685321 2.101231 0.151914
v -0.682521 2.101583 0.152208
v -0.684494 2.102899 0.151536
v -0.684138 2.102651 0.151929
v -0.684522 2.101343 0.152118
v -0.682521 2.102998 0.151915
v 0.664745 0.000000 0.151913
v 0.661893 0.002238 0.152208
v 0.661451 0.002000 0.151208
v 0.663846 0.000645 0.152120
v 0.662347 0.000905 0.151929
v 0.661583 0.002167 0.151919
v 0.662410 0.000591 0.151535
v -0.684879 0.002238 0.152208
v -0.685321 0.002000 0.151208
v -0.682027 0.000000 0.151913
v -0.685188 0.002167 0.151919
v -0.684425 0.000905 0.151929
v -0.684362 0.000591 0.151535
v -0.682926 0.000645 0.152120
vn -1.0000 -0.0000 -0.0000
vn 0.0062 1.0000 0.0028
vn -0.0000 1.0000 -0.0000
vn -0.0000 1.0000 -0.0001
vn 1.0000 -0.0000 -0.0000
vn 1.0000 -0.0000 -0.0002
vn -0.0008 -1.0000 -0.0063
vn -0.0000 -1.0000 -0.0000
vn -0.0000 -0.0000 -1.0000
vn -1.0000 -0.0000 -0.0002
vn -0.9999 0.0006 -0.0163
vn -0.0000 -0.0000 1.0000
vn -0.9999 -0.0006 0.0164
vn -1.0000 -0.0000 0.0001
vn -1.0000 -0.0000 0.0002
vn -0.0015 0.0014 1.0000
vn 0.0023 0.0016 1.0000
vn 0.0015 -0.0014 1.0000
vn 1.0000 -0.0000 0.0001
vn -0.0028 1.0000 0.0081
vn 1.0000 -0.0080 -0.0017
vn 0.0008 -1.0000 -0.0024
vn 0.0001 -1.0000 0.0014
vn 0.0016 -1.0000 0.0059
vn -0.0000 1.0000 0.0001
vn 1.0000 -0.0000 -0.0001
vn -1.0000 -0.0000 -0.0001
vn -1.0000 -0.0000 -0.0003
vn -0.0011 0.0016 1.0000
vn -0.0019 0.9999 0.0110
vn -0.0039 1.0000 0.0067
vn -1.0000 -0.0094 -0.0000
vn -0.9999 0.0117 -0.0019
vn 1.0000 0.0010 0.0028
vn 0.9999 0.0056 0.0112
vn 1.0000 -0.0040 0.0034
vn -1.0000 0.0015 -0.0064
vn -0.9999 -0.0056 0.0110
vn -1.0000 0.0040 0.0030
vn -0.0047 1.0000 0.0001
vn -0.0012 0.0018 1.0000
vn 0.0011 -0.0015 1.0000
vn -0.0014 -0.0020 1.0000
vn -0.9999 -0.0021 -0.0099
vn 0.0054 1.0000 0.0007
vn -0.0024 -1.0000 0.0054
vn 0.0011 -1.0000 -0.0039
vn -0.0000 0.0001 -1.0000
vn 1.0000 -0.0000 0.0002
vn -0.9999 -0.0020 -0.0101
vn -1.0000 0.0015 -0.0065
vn -0.9999 -0.0057 0.0115
vn -0.0000 -1.0000 0.0093
vn 0.0006 -0.9999 -0.0104
vn -0.9999 -0.0021 -0.0101
vn -1.0000 -0.0000 0.0003
vn -1.0000 0.0014 -0.0064
vn 0.0024 0.9999 0.0142
vn 1.0000 -0.0015 -0.0061
vn 0.9999 0.0056 0.0113
vn 1.0000 -0.0040 0.0030
vn 1.0000 -0.0014 -0.0064
vn 0.9999 0.0021 -0.0102
vn -0.0000 0.0024 -1.0000
vn -0.0000 -0.0030 -1.0000
vn -0.9999 -0.0071 -0.0146
vn -0.9998 0.0031 -0.0217
vn -1.0000 0.0002 0.0030
vn 0.0018 -0.9999 0.0109
vn -1.0000 0.0014 -0.0060
vn -1.0000 0.0040 0.0031
vn 0.9999 0.0021 -0.0101
vn 1.0000 0.0023 -0.0044
vn -0.0024 -0.9999 0.0142
vn 0.0028 -1.0000 0.0083
vn 0.9999 -0.0092 -0.0102
vn -0.0016 0.0014 1.0000
vn -0.0023 -0.0016 1.0000
vn 0.9999 0.0020 -0.0104
vn 0.0016 -0.0014 1.0000
vn -0.0024 -0.0016 1.0000
vn 0.0039 -1.0000 0.0067
vn 0.0008 -0.9999 -0.0104
vn -0.0023 -1.0000 -0.0096
vn 0.9999 0.0021 -0.0103
vn 1.0000 -0.0041 0.0031
vn 0.0027 -1.0000 0.0083
vn 0.0007 0.0001 1.0000
vn 0.0014 0.0020 1.0000
vn 1.0000 -0.0000 0.0003
vn -1.0000 -0.0011 -0.0053
vn -0.0027 1.0000 0.0081
vn 1.0000 0.0005 -0.0000
vn 1.0000 -0.0001 0.0020
vn 1.0000 -0.0003 0.0011
vn 0.0028 1.0000 -0.0066
vn 0.0024 0.9999 0.0143
vn -0.0021 -0.0003 -1.0000
vn 1.0000 -0.0033 -0.0055
vn -0.0001 -0.0007 1.0000
vn -1.0000 0.0001 0.0020
vn -1.0000 -0.0010 0.0028
vn -0.9999 -0.0054 0.0107
vn -1.0000 0.0039 0.0029
vn -0.9999 -0.0058 0.0112
vn 1.0000 -0.0000 0.0019
vn 0.9999 0.0055 0.0110
vn -0.0011 -1.0000 0.0054
vn 0.0004 0.0007 -1.0000
vn -1.0000 -0.0020 -0.0095
vn -0.9999 0.0092 -0.0102
vn 0.0028 -1.0000 0.0082
vn 0.9999 0.0056 0.0110
vn -0.0025 -0.9999 0.0144
vn -0.0025 -0.9999 0.0142
vn -0.9451 -0.3178 -0.0759
vn -0.2016 -0.4774 -0.8552
vn -0.2760 -0.9566 0.0930
vn -0.0063 -0.4752 -0.8799
vn -0.4355 -0.2917 -0.8516
vn 0.0289 -0.9996 -0.0014
vn -0.3044 0.4258 -0.8521
vn -0.5922 0.8037 0.0576
vn -0.0689 0.5785 -0.8127
vn -0.2426 0.0806 -0.9668
vn 0.9891 0.0003 0.1475
vn 0.4634 -0.5776 -0.6720
vn 0.7119 0.0533 -0.7002
vn 0.0555 -0.3038 -0.9511
vn 0.5999 -0.7625 -0.2425
vn 0.1167 -0.0252 -0.9928
vn 0.3043 0.4257 -0.8521
vn 0.5687 0.8210 0.0516
vn 0.4508 0.1054 -0.8864
vn 0.0562 0.3307 -0.9420
vn 0.0201 -0.9985 -0.0507
vn -0.3726 -0.1626 0.9136
vn 0.0280 -0.3956 0.9180
vn -0.4687 0.1186 0.8753
vn -0.7299 0.2850 0.6213
vn 0.3479 -0.0754 0.9345
vn -0.0294 -0.4316 0.9016
vn 0.6005 -0.4945 -0.6284
vn 0.5102 0.0859 0.8558
vn -0.0160 -0.9993 -0.0328
vn -0.0201 0.9985 -0.0507
vn 0.3726 0.1628 0.9136
vn -0.0281 0.3957 0.9179
vn 0.4688 -0.1186 0.8753
vn 0.7300 -0.2849 0.6213
vn -0.3473 0.0708 0.9351
vn 0.0297 0.4330 0.9009
vn -0.5947 0.4973 -0.6317
vn -0.5036 -0.0861 0.8596
vn 0.0161 0.9993 -0.0330
vn 0.4922 -0.6146 0.6164
vn 0.3359 0.0320 0.9413
vn 0.9990 0.0054 -0.0447
vn 0.0308 -0.9020 0.4306
vn -0.0127 -0.0132 0.9998
vn -0.4125 -0.8807 -0.2326
vn -0.0062 -0.9090 0.4167
vn -0.5022 -0.1639 0.8491
vn 0.0145 0.0143 0.9998
vn -0.3478 0.0755 0.9345
vn 0.0294 0.4316 0.9016
vn -0.6004 0.4944 -0.6286
vn -0.5101 -0.0858 0.8558
vn 0.0159 0.9993 -0.0328
vn -0.0203 0.9985 -0.0507
vn 0.3724 0.1629 0.9137
vn 0.4689 -0.1186 0.8753
vn 0.7301 -0.2849 0.6212
vn 0.6004 -0.4944 -0.6286
vn 0.3460 -0.0110 0.9382
vn 0.3479 -0.0757 0.9345
vn 0.0570 -0.1374 0.9889
vn 0.0202 -0.9985 -0.0507
vn -0.3725 -0.1629 0.9136
vn 0.0281 -0.3957 0.9179
vn -0.4688 0.1186 0.8753
vn -0.7302 0.2850 0.6209
vn -0.3480 0.0757 0.9344
vn -0.6004 0.4945 -0.6284
vn -0.0202 0.9985 -0.0507
vn -0.0281 0.3957 0.9180
vn 0.7300 -0.2850 0.6212
vn -0.3727 -0.1628 0.9135
vn 0.0281 -0.3957 0.9180
vn -0.7301 0.2850 0.6211
vn 0.3480 -0.0757 0.9344
vn 0.6004 -0.4945 -0.6285
vn -0.0159 -0.9993 -0.0327
vn -0.0202 0.9985 -0.0508
vn 0.3726 0.1627 0.9136
vn 0.4687 -0.1186 0.8754
vn 0.7300 -0.2849 0.6212
vn -0.6004 0.4945 -0.6285
vn -0.5102 -0.0858 0.8558
vn 0.0159 0.9993 -0.0327
vn -0.3725 -0.1628 0.9137
vn 0.0280 -0.3957 0.9179
vn -0.4689 0.1186 0.8753
vn -0.7300 0.2849 0.6212
vn 0.3486 -0.0793 0.9339
vn -0.0291 -0.4305 0.9021
vn 0.6050 -0.4923 -0.6258
vn 0.5157 0.0857 0.8525
vn -0.0158 -0.9993 -0.0326
vn -0.0023 -0.0325 0.9995
vn 0.4041 -0.6331 0.6602
vn 0.3131 0.0204 0.9495
vn 0.0085 -0.7197 0.6942
vn 0.5280 -0.8166 0.2332
vn -0.5610 -0.8273 0.0299
vn -0.3080 0.0192 0.9512
vn -0.4095 -0.6447 0.6455
vn 0.0082 -0.0195 0.9998
vn -0.2195 -0.9755 0.0136
vn -0.3073 0.5191 0.7976
vn 0.0137 0.5518 0.8338
vn -0.2458 0.0582 0.9676
vn -0.3777 0.8085 0.4513
vn 0.0014 0.0062 1.0000
vn -0.0035 0.0099 0.9999
vn 0.3349 0.4898 0.8050
vn -0.0154 0.5646 0.8252
vn 0.4880 0.8689 0.0832
vn 0.2648 0.1762 0.9481
vn 0.3073 -0.5192 0.7975
vn -0.0137 -0.5518 0.8338
vn 0.2458 -0.0582 0.9676
vn 0.3778 -0.8085 0.4512
vn -0.0014 -0.0062 1.0000
vn 0.0035 -0.0099 0.9999
vn -0.3346 -0.4900 0.8049
vn 0.0154 -0.5646 0.8252
vn -0.4879 -0.8689 0.0832
vn -0.2648 -0.1762 0.9481
vn -0.3350 -0.4901 0.8047
vn 0.3073 -0.5190 0.7976
vn 0.4879 0.8689 0.0832
vn 0.3286 -0.0111 0.9444
vn 0.3350 0.4900 0.8048
vn -0.0035 0.0098 0.9999
vn 0.1134 0.7098 0.6952
vn -0.3072 0.5192 0.7975
vn -0.3778 0.8085 0.4512
vn -0.3348 -0.4901 0.8048
vn -0.4880 -0.8688 0.0832
vn 0.0130 0.9998 0.0121
vn -0.3150 0.4729 0.8229
vn 0.0143 0.5476 0.8366
vn -0.2582 0.0457 0.9650
vn -0.4019 0.7883 0.4659
vn -0.9992 0.0384 0.0096
vn 0.0008 0.0047 1.0000
vn -0.0037 0.0089 1.0000
vn 0.3336 0.4871 0.8071
vn -0.0152 0.5584 0.8295
vn 0.4868 0.8694 0.0845
vn 0.2639 0.1741 0.9487
vn 0.0034 -0.0094 0.9999
vn -0.3334 -0.4870 0.8072
vn 0.0152 -0.5583 0.8295
vn -0.4870 -0.8693 0.0841
vn -0.2639 -0.1741 0.9487
vn 0.3076 -0.5141 0.8007
vn -0.0136 -0.5462 0.8375
vn 0.2469 -0.0563 0.9674
vn 0.3794 -0.8068 0.4528
vn -0.0014 -0.0061 1.0000
vn -0.0008 -0.0049 1.0000
vn 0.3145 -0.4840 0.8166
vn 0.3334 0.0110 0.9427
vn -0.0138 -0.9998 0.0124
vn 0.0146 -0.4115 0.9113
vn 0.3983 -0.7944 0.4587
vn 0.9990 -0.0439 0.0095
vn 0.4890 0.8684 0.0819
vn 0.3294 -0.0113 0.9441
vn 0.3366 0.4939 0.8018
vn -0.0036 0.0104 0.9999
vn 0.1158 0.7178 0.6866
vn -0.3067 0.5253 0.7937
vn 0.0136 0.5588 0.8292
vn -0.2444 0.0605 0.9678
vn -0.3755 0.8107 0.4491
vn 0.0015 0.0064 1.0000
vn -0.3777 0.8086 0.4511
vn 0.0015 0.0062 1.0000
vn 0.3350 0.4901 0.8047
vn -0.4890 -0.8684 0.0821
vn -0.3294 0.0113 0.9441
vn -0.3367 -0.4941 0.8015
vn 0.0039 -0.0099 0.9999
vn -0.1157 -0.7177 0.6867
vn 0.3206 -0.0038 0.9472
vn 0.5735 -0.8146 -0.0871
vn 0.2998 -0.2392 0.9235
vn -0.0048 -0.9979 0.0651
vn 0.0847 -0.0787 0.9933
vn 0.0120 0.9306 0.3660
vn 0.2930 0.2938 0.9099
vn 0.5340 0.8413 -0.0841
vn 0.0015 -0.0205 0.9998
vn 0.0613 0.3439 0.9370
vn 0.2899 0.0854 0.9532
vn -0.2033 -0.0830 0.9756
vn -0.0143 0.4156 0.9094
vn -0.1921 0.2690 0.9438
vn 0.0023 1.0000 -0.0090
vn -0.1914 0.7659 0.6139
vn -0.0041 0.9996 -0.0271
vn 0.1921 0.2690 0.9438
vn 0.0192 0.4101 0.9119
vn 0.6375 0.3289 0.6967
vn 0.0474 0.0031 0.9989
vn 0.1921 -0.2690 0.9438
vn 0.5855 -0.8008 -0.1259
vn 0.2033 0.0830 0.9756
vn 0.0022 -0.0664 0.9978
vn 0.5737 -0.8146 -0.0853
vn -0.0100 -0.9993 0.0367
vn 0.0848 -0.0788 0.9933
vn 0.0370 -0.3667 0.9296
vn -0.6836 -0.0387 0.7288
vn -0.0576 -0.3413 0.9382
vn -0.5465 -0.2885 0.7862
vn 0.1921 -0.2689 0.9438
vn 0.5789 -0.7901 -0.2013
vn 0.2032 0.0830 0.9756
vn 0.0022 -0.0662 0.9978
vn -0.1921 -0.2688 0.9438
vn -0.5498 -0.8235 -0.1400
vn 0.0582 -0.2796 0.9583
vn -0.0475 -0.0030 0.9989
vn -0.7208 0.6493 0.2427
vn 0.0041 0.4525 0.8917
vn -0.8755 0.0221 0.4826
vn -0.2057 0.4022 0.8922
vn 0.0148 0.0016 0.9999
vn -0.2525 0.0886 0.9635
vn -0.0397 -0.1123 0.9929
vn -0.5306 -0.8474 -0.0200
vn -0.0118 -0.9995 0.0286
vn -0.0482 -0.0095 0.9988
vn -0.3850 -0.5115 0.7682
vn -0.5897 -0.0715 0.8044
vn -0.1273 -0.0255 0.9915
vn -0.3851 -0.5114 0.7682
vn 0.0119 -0.1660 0.9861
vn -0.9883 0.0016 -0.1527
vn -0.5639 -0.2384 0.7907
vn -0.6231 -0.7541 0.2077
vn -0.0157 -0.9980 0.0605
vn -0.0411 -0.9992 0.0004
vn -0.5314 -0.8321 0.1586
vn -0.6218 0.7826 -0.0285
vn -0.0111 0.9999 -0.0004
vn -0.3675 -0.0101 -0.9300
vn 0.9740 0.0012 -0.2264
vn 0.3347 0.0632 -0.9402
vn -0.0448 -0.0001 -0.9990
vn 0.5812 -0.8137 -0.0000
vn 0.5385 0.8420 0.0309
vn 0.9998 0.0216 -0.0005
vn 0.3363 -0.0000 -0.9417
vn -0.3363 -0.0000 -0.9417
vn 0.0050 0.0006 -1.0000
vn -0.3354 -0.0086 -0.9420
vn -0.0038 -0.4216 -0.9068
vn -0.0000 0.4471 -0.8945
vn -0.0013 -0.4407 -0.8977
vn 0.9995 0.0327 -0.0000
vn 0.0152 -0.9999 -0.0002
vn -0.5523 -0.8335 0.0159
vn -0.5805 0.8126 -0.0513
vn -0.9996 -0.0291 -0.0000
vn -0.0135 0.9999 -0.0000
vn 0.5277 0.8461 0.0750
vn 0.5995 -0.8002 -0.0181
vn 0.3363 -0.0000 0.9417
vn -0.3370 -0.0600 0.9396
vn 0.0448 -0.0001 0.9990
vn -0.3363 -0.0000 0.9417
vn -0.9740 0.0012 0.2264
vn -0.3279 0.0372 0.9440
vn -0.9668 -0.0003 -0.2556
vn -0.0224 -0.0027 0.9997
vn 0.0253 0.4371 0.8991
vn -0.0002 0.9826 -0.1855
vn -0.0000 0.4471 0.8945
vn -0.0019 0.0312 0.9995
vn -0.0000 0.0001 1.0000
vn -0.0058 -0.5033 0.8641
vn -0.0318 -0.4906 0.8708
vn -0.9906 0.1367 -0.0006
vt 0.188636 0.609616
vt 0.327308 0.606017
vt 0.327308 0.609616
vt 0.188636 0.790696
vt 0.327308 0.794184
vt 0.188636 0.794184
vt 0.315541 0.479855
vt 0.315451 0.476262
vt 0.453798 0.476215
vt 0.326844 0.299185
vt 0.328160 0.302128
vt 0.327308 0.302131
vt 0.458161 0.109075
vt 0.454655 0.109077
vt 0.454207 0.081522
vt 0.458295 0.202350
vt 0.454793 0.202347
vt 0.454656 0.112670
vt 0.327308 0.423601
vt 0.188636 0.423601
vt 0.188636 0.334192
vt 0.458163 0.112661
vt 0.331785 0.423601
vt 0.328760 0.423601
vt 0.328760 0.334192
vt 0.454657 0.112668
vt 0.315105 0.297549
vt 0.315061 0.293947
vt 0.453921 0.293779
vt 0.315314 0.388789
vt 0.315255 0.385193
vt 0.453899 0.385085
vt 0.327308 0.334192
vt 0.188705 0.330633
vt 0.327833 0.606017
vt 0.327833 0.609616
vt 0.860433 0.298975
vt 0.860433 0.517059
vt 0.857761 0.517060
vt 0.454778 0.205976
vt 0.314687 0.112935
vt 0.314160 0.112937
vt 0.314149 0.109368
vt 0.187709 0.423601
vt 0.184221 0.334192
vt 0.187709 0.334192
vt 0.856961 0.516980
vt 0.722083 0.299054
vt 0.856957 0.299051
vt 0.457606 0.566009
vt 0.454450 0.565036
vt 0.454607 0.479961
vt 0.188636 0.518407
vt 0.188636 0.514809
vt 0.327308 0.514809
vt 0.188636 0.427199
vt 0.453138 0.567394
vt 0.315813 0.567807
vt 0.315694 0.564896
vt 0.187709 0.514809
vt 0.184221 0.514809
vt 0.184221 0.427199
vt 0.360751 0.341161
vt 0.360813 0.559241
vt 0.360751 0.559241
vt 0.327308 0.790696
vt 0.327833 0.794184
vt 0.453864 0.202347
vt 0.314868 0.202575
vt 0.314897 0.206181
vt 0.327308 0.427199
vt 0.327308 0.518407
vt 0.454819 0.297404
vt 0.458345 0.293789
vt 0.458322 0.297409
vt 0.327308 0.786274
vt 0.188636 0.700824
vt 0.327308 0.700824
vt 0.454651 0.479835
vt 0.454724 0.476218
vt 0.458212 0.476240
vt 0.327308 0.697225
vt 0.188636 0.786274
vt 0.644049 0.494949
vt 0.641023 0.714421
vt 0.641018 0.495412
vt 0.365827 0.341161
vt 0.501038 0.559162
vt 0.365827 0.559165
vt 0.327308 0.789690
vt 0.188636 0.789769
vt 0.328760 0.427199
vt 0.331785 0.427199
vt 0.333237 0.334656
vt 0.468254 0.334656
vt 0.468251 0.423248
vt 0.309807 0.384757
vt 0.174269 0.385044
vt 0.174088 0.298208
vt 0.454581 0.570327
vt 0.314888 0.571403
vt 0.315700 0.568633
vt 0.184221 0.700824
vt 0.187709 0.697225
vt 0.187709 0.700824
vt 0.184221 0.609616
vt 0.187709 0.606017
vt 0.187709 0.609616
vt 0.184221 0.518407
vt 0.187709 0.518407
vt 0.184221 0.330633
vt 0.361743 0.560168
vt 0.364368 0.340234
vt 0.364374 0.560168
vt 0.309623 0.297925
vt 0.454589 0.570325
vt 0.316026 0.568542
vt 0.453322 0.568079
vt 0.327833 0.700824
vt 0.327833 0.786274
vt 0.453724 0.109078
vt 0.314674 0.109367
vt 0.314608 0.081793
vt 0.454818 0.297405
vt 0.454849 0.293780
vt 0.454779 0.205975
vt 0.458284 0.205974
vt 0.453666 0.080538
vt 0.314606 0.080863
vt 0.315063 0.077908
vt 0.455096 0.569987
vt 0.453830 0.567741
vt 0.454199 0.565205
vt 0.314736 0.385197
vt 0.454779 0.388706
vt 0.458314 0.385103
vt 0.458278 0.388717
vt 0.639566 0.495412
vt 0.639564 0.714421
vt 0.500895 0.714420
vt 0.309804 0.384756
vt 0.309898 0.388815
vt 0.309839 0.389167
vt 0.860433 0.518660
vt 0.860433 0.736745
vt 0.857761 0.736745
vt 0.309395 0.202129
vt 0.173558 0.202418
vt 0.173371 0.113593
vt 0.644879 0.275168
vt 0.506672 0.494722
vt 0.506672 0.275710
vt 0.505534 0.180595
vt 0.286522 0.176996
vt 0.505534 0.176997
vt 0.309413 0.206552
vt 0.309661 0.293969
vt 0.309598 0.293505
vt 0.722088 0.516983
vt 0.505534 0.363011
vt 0.286523 0.359414
vt 0.505534 0.359413
vt 0.505534 0.089387
vt 0.286523 0.085787
vt 0.505534 0.085789
vt 0.309596 0.293505
vt 0.309684 0.297571
vt 0.309625 0.297924
vt 0.332774 0.427663
vt 0.468252 0.427663
vt 0.468249 0.514462
vt 0.332773 0.701287
vt 0.468247 0.785933
vt 0.333237 0.785811
vt 0.505533 0.271803
vt 0.286522 0.268205
vt 0.505533 0.268205
vt 0.332774 0.423243
vt 0.286522 0.180595
vt 0.286522 0.271804
vt 0.505534 0.452420
vt 0.286523 0.363013
vt 0.505535 0.483422
vt 0.286524 0.483478
vt 0.286523 0.455981
vt 0.496473 0.714420
vt 0.496473 0.495411
vt 0.499968 0.495411
vt 0.309127 0.081807
vt 0.309255 0.108916
vt 0.309194 0.108916
vt 0.286523 0.089386
vt 0.286523 0.000337
vt 0.505535 0.000339
vt 0.314008 0.476274
vt 0.310984 0.476290
vt 0.310825 0.388810
vt 0.455347 0.569818
vt 0.645507 0.495876
vt 0.780715 0.495876
vt 0.780720 0.713878
vt 0.454655 0.479836
vt 0.458174 0.479865
vt 0.309993 0.475833
vt 0.174563 0.389407
vt 0.309837 0.389168
vt 0.327833 0.697225
vt 0.187709 0.786274
vt 0.505534 0.455978
vt 0.286523 0.452421
vt 0.332773 0.696873
vt 0.332712 0.697225
vt 0.332712 0.609615
vt 0.453667 0.080534
vt 0.315063 0.077913
vt 0.453658 0.077003
vt 0.310612 0.297567
vt 0.310589 0.293965
vt 0.313615 0.293954
vt 0.645409 0.494208
vt 0.645424 0.276223
vt 0.673238 0.276225
vt 0.327308 0.303137
vt 0.327833 0.303137
vt 0.327833 0.330634
vt 0.187710 0.789768
vt 0.184221 0.789768
vt 0.184221 0.786274
vt 0.314081 0.081794
vt 0.957398 0.495969
vt 0.957389 0.713865
vt 0.870236 0.713862
vt 0.869115 0.495969
vt 0.781953 0.713862
vt 0.781962 0.495965
vt 0.220240 0.999104
vt 0.305254 0.781211
vt 0.305245 0.999108
vt 0.220249 0.781207
vt 0.869106 0.713865
vt 0.861232 0.518739
vt 0.996106 0.518736
vt 0.996111 0.736665
vt 0.332773 0.423243
vt 0.332712 0.334656
vt 0.145675 0.508925
vt 0.143003 0.727009
vt 0.143004 0.508925
vt 0.501033 0.341161
vt 0.332773 0.514457
vt 0.332712 0.427199
vt 0.145675 0.289240
vt 0.143003 0.507324
vt 0.143004 0.289240
vt 0.645507 0.713881
vt 0.644982 0.713957
vt 0.644976 0.495876
vt 0.332773 0.605665
vt 0.332712 0.606017
vt 0.332712 0.518407
vt 0.309838 0.389167
vt 0.310056 0.476294
vt 0.309994 0.475832
vt 0.332712 0.700824
vt 0.309622 0.297923
vt 0.309869 0.385219
vt 0.309807 0.384755
vt 0.332773 0.518871
vt 0.468249 0.605669
vt 0.861232 0.299054
vt 0.996111 0.516980
vt 0.861237 0.516984
vt 0.327833 0.334192
vt 0.327833 0.423601
vt 0.313219 0.109371
vt 0.309811 0.109845
vt 0.309727 0.081860
vt 0.314368 0.206184
vt 0.310825 0.388811
vt 0.313814 0.385202
vt 0.313851 0.388798
vt 0.313614 0.293954
vt 0.313643 0.297556
vt 0.314355 0.565243
vt 0.311012 0.479905
vt 0.314057 0.479880
vt 0.331784 0.606017
vt 0.328760 0.606017
vt 0.328760 0.518407
vt 0.310404 0.206196
vt 0.313417 0.202581
vt 0.313436 0.206187
vt 0.314575 0.297552
vt 0.314547 0.293950
vt 0.331785 0.514809
vt 0.328760 0.514809
vt 0.327833 0.518407
vt 0.331784 0.697225
vt 0.328760 0.697225
vt 0.328760 0.609616
vt 0.331785 0.609615
vt 0.327308 0.330634
vt 0.314565 0.297551
vt 0.332248 0.789769
vt 0.328760 0.789769
vt 0.328760 0.786274
vt 0.314400 0.565339
vt 0.311653 0.566460
vt 0.310966 0.479808
vt 0.327833 0.427199
vt 0.314931 0.476267
vt 0.314774 0.388792
vt 0.331785 0.786738
vt 0.328760 0.700824
vt 0.640091 0.495412
vt 0.640095 0.714421
vt 0.315231 0.565078
vt 0.314933 0.479715
vt 0.331785 0.700824
vt 0.361736 0.340609
vt 0.331785 0.333729
vt 0.328760 0.330634
vt 0.640093 0.714421
vt 0.188636 0.298721
vt 0.188636 0.302209
vt 0.309189 0.081806
vt 0.332773 0.610079
vt 0.468252 0.610079
vt 0.468249 0.696877
vt 0.310403 0.206196
vt 0.310387 0.202590
vt 0.142204 0.507245
vt 0.007330 0.507248
vt 0.007325 0.289319
vt 0.313230 0.112939
vt 0.310195 0.112482
vt 0.309811 0.109844
vt 0.332773 0.330170
vt 0.332712 0.330170
vt 0.332712 0.303137
vt 0.332774 0.514457
vt 0.315089 0.567909
vt 0.311741 0.566334
vt 0.327833 0.790696
vt 0.314784 0.388793
vt 0.314747 0.385197
vt 0.309599 0.293505
vt 0.173872 0.293795
vt 0.173689 0.206838
vt 0.327833 0.514809
vt 0.332712 0.514809
vt 0.856961 0.736666
vt 0.722088 0.736668
vt 0.722083 0.518739
vt 0.332712 0.609616
vt 0.365298 0.341161
vt 0.313815 0.385202
vt 0.310795 0.385215
vt 0.310611 0.297567
vt 0.145675 0.727009
vt 0.143003 0.727010
vt 0.308742 0.113415
vt 0.314539 0.293950
vt 0.314361 0.206183
vt 0.142204 0.726930
vt 0.007330 0.726933
vt 0.007325 0.509004
vt 0.187710 0.789769
vt 0.454778 0.388708
vt 0.453863 0.202347
vt 0.453726 0.112670
vt 0.187709 0.330633
vt 0.331785 0.331097
vt 0.328370 0.303192
vt 0.454778 0.205977
vt 0.454826 0.385087
vt 0.454817 0.297406
vt 0.315738 0.567852
vt 0.315617 0.567829
vt 0.314929 0.565259
vt 0.453920 0.293779
vt 0.453849 0.205976
vt 0.313152 0.081850
vt 0.644979 0.495876
vt 0.453797 0.476215
vt 0.453851 0.388705
vt 0.184221 0.697225
vt 0.184221 0.606017
vt 0.188708 0.302780
vt 0.453889 0.297404
vt 0.453799 0.476215
vt 0.453725 0.479832
vt 0.187709 0.427199
vt 0.184221 0.423601
vt 0.188636 0.606017
vt 0.188636 0.697225
vt 0.644055 0.714885
vt 0.309458 0.202593
vt 0.309395 0.202128
vt 0.673222 0.494209
vt 0.856961 0.736665
vt 0.856957 0.518736
vt 0.328160 0.789687
vt 0.146474 0.289319
vt 0.281348 0.289316
vt 0.281353 0.507245
vt 0.315503 0.568599
vt 0.328760 0.609615
vt 0.331785 0.609616
vt 0.313743 0.077914
vt 0.453898 0.385086
vt 0.188636 0.700823
vt 0.313764 0.080865
vt 0.453569 0.564907
vt 0.453201 0.567443
vt 0.453570 0.564907
vt 0.309623 0.297924
vt 0.309868 0.385218
vt 0.332712 0.423601
vt 0.644879 0.495185
vt 0.309394 0.202128
vt 0.309474 0.206199
vt 0.309414 0.206552
vt 0.309992 0.475829
vt 0.310081 0.479910
vt 0.309268 0.113414
vt 0.309458 0.202592
vt 0.184221 0.303136
vt 0.500896 0.495411
vt 0.328147 0.299185
vt 0.314005 0.476276
vt 0.310227 0.565633
vt 0.174053 0.566710
vt 0.173381 0.481336
vt 0.454778 0.388707
vt 0.174716 0.476076
vt 0.331785 0.518407
vt 0.332712 0.785811
vt 0.468249 0.701287
vt 0.458102 0.081512
vt 0.360748 0.341161
vt 0.360809 0.341161
vt 0.360816 0.559241
vt 0.187709 0.303136
vt 0.142199 0.289316
vt 0.453724 0.109079
vt 0.314608 0.081794
vt 0.453669 0.081468
vt 0.154319 0.716410
vt 0.154309 0.934306
vt 0.065367 0.934302
vt 0.893881 0.494162
vt 0.981043 0.276270
vt 0.981034 0.494166
vt 0.065376 0.716406
vt 0.314148 0.109368
vt 0.870246 0.495965
vt 0.365301 0.559241
vt 0.365296 0.341161
vt 0.309661 0.293968
vt 0.309837 0.389167
vt 0.310057 0.476295
vt 0.861237 0.736669
vt 0.857761 0.298975
vt 0.310019 0.480261
vt 0.310078 0.479912
vt 0.310758 0.565629
vt 0.332711 0.609616
vt 0.332711 0.606017
vt 0.310020 0.480260
vt 0.310757 0.565629
vt 0.309995 0.475827
vt 0.310018 0.480260
vt 0.313416 0.202580
vt 0.310196 0.112482
vt 0.311008 0.479906
vt 0.310824 0.388811
vt 0.314344 0.202577
vt 0.314348 0.202577
vt 0.314032 0.570752
vt 0.315001 0.479866
vt 0.314948 0.476262
vt 0.313037 0.569698
vt 0.311741 0.566333
vt 0.331785 0.303190
vt 0.499968 0.714420
vt 0.146479 0.507248
vt 0.857761 0.518660
vt 0.893890 0.276266
vt 0.142199 0.509001
vt 0.310613 0.297567
vt 0.146474 0.509004
vt 0.281353 0.726930
vt 0.146479 0.726933
vt 0.468252 0.518871
vt 0.996106 0.299051
vt 0.309413 0.206553
vt 0.145675 0.507324
vt 0.332773 0.303137
vt 0.314157 0.112936
vt 0.281348 0.509001
vt 0.188179 0.302714
vt 0.188686 0.302673
vt 0.187709 0.302673
vt 0.188173 0.302970
vt 0.188173 0.302209
vt 0.188238 0.790232
vt 0.188636 0.790232
vt 0.187710 0.790232
vt 0.188173 0.789769
vt 0.454067 0.081033
vt 0.454133 0.081506
vt 0.454132 0.080720
vt 0.453668 0.081003
vt 0.454412 0.081001
vt 0.453579 0.567774
vt 0.453152 0.567779
vt 0.453662 0.567443
vt 0.453782 0.568078
vt 0.860896 0.517523
vt 0.860896 0.517016
vt 0.309531 0.476296
vt 0.860896 0.517310
vt 0.860873 0.298512
vt 0.860896 0.299020
vt 0.333237 0.697225
vt 0.333237 0.697281
vt 0.860896 0.298725
vt 0.860896 0.298512
vt 0.857298 0.298512
vt 0.857298 0.299018
vt 0.333237 0.700824
vt 0.857298 0.298725
vt 0.857322 0.517523
vt 0.857297 0.517015
vt 0.309549 0.479915
vt 0.309549 0.479856
vt 0.857297 0.517309
vt 0.857297 0.517523
vt 0.333237 0.302673
vt 0.333237 0.302947
vt 0.645343 0.494501
vt 0.645343 0.494722
vt 0.645617 0.494722
vt 0.314566 0.077365
vt 0.314596 0.077173
vt 0.308662 0.081624
vt 0.308692 0.081343
vt 0.645343 0.275902
vt 0.645624 0.275710
vt 0.142563 0.507788
vt 0.142540 0.507279
vt 0.309373 0.388817
vt 0.309373 0.388762
vt 0.142540 0.507574
vt 0.142540 0.507788
vt 0.142540 0.288776
vt 0.142540 0.289283
vt 0.333236 0.609616
vt 0.142540 0.288989
vt 0.333237 0.606017
vt 0.333237 0.606073
vt 0.146138 0.288990
vt 0.146138 0.288776
vt 0.146115 0.288776
vt 0.146138 0.289285
vt 0.146139 0.507788
vt 0.146139 0.507281
vt 0.309344 0.385221
vt 0.146139 0.507575
vt 0.857321 0.737208
vt 0.857297 0.736700
vt 0.309158 0.297573
vt 0.309158 0.297518
vt 0.857297 0.736994
vt 0.857297 0.737208
vt 0.857298 0.518197
vt 0.857298 0.518703
vt 0.333237 0.518407
vt 0.857298 0.518410
vt 0.860896 0.737208
vt 0.860896 0.736702
vt 0.309135 0.293971
vt 0.860896 0.736995
vt 0.860873 0.518197
vt 0.860896 0.518705
vt 0.333237 0.514809
vt 0.333237 0.514865
vt 0.860896 0.518410
vt 0.860896 0.518197
vt 0.142540 0.508462
vt 0.142540 0.508968
vt 0.333237 0.427199
vt 0.142540 0.508675
vt 0.142563 0.727473
vt 0.142540 0.726964
vt 0.308948 0.206201
vt 0.308948 0.206145
vt 0.142540 0.727259
vt 0.142540 0.727473
vt 0.146139 0.727473
vt 0.146139 0.726966
vt 0.308932 0.202594
vt 0.146139 0.727260
vt 0.146116 0.508462
vt 0.146138 0.508970
vt 0.333237 0.423601
vt 0.333237 0.423654
vt 0.146138 0.508675
vt 0.146138 0.508462
vt 0.673303 0.494514
vt 0.673023 0.494722
vt 0.360482 0.559704
vt 0.360285 0.559207
vt 0.333237 0.330353
vt 0.332773 0.330634
vt 0.309195 0.109381
vt 0.308729 0.109108
vt 0.360284 0.340906
vt 0.360751 0.340698
vt 0.673190 0.275710
vt 0.673303 0.276210
vt 0.007178 0.507788
vt 0.006989 0.507239
vt 0.174025 0.389351
vt 0.174481 0.389060
vt 0.893657 0.275942
vt 0.893948 0.275710
vt 0.893803 0.494722
vt 0.893657 0.494169
vt 0.468345 0.609615
vt 0.468787 0.609961
vt 0.006989 0.289009
vt 0.007432 0.288776
vt 0.281500 0.288776
vt 0.281689 0.289325
vt 0.468787 0.605726
vt 0.468330 0.606017
vt 0.781729 0.495641
vt 0.782021 0.495409
vt 0.781875 0.714421
vt 0.781729 0.713869
vt 0.174177 0.385508
vt 0.173734 0.385163
vt 0.281689 0.507554
vt 0.281247 0.507788
vt 0.870158 0.714421
vt 0.870013 0.713869
vt 0.173780 0.294260
vt 0.173336 0.293914
vt 0.996447 0.736975
vt 0.996005 0.737208
vt 0.996257 0.518196
vt 0.996447 0.518745
vt 0.468788 0.514518
vt 0.468330 0.514810
vt 0.870013 0.495641
vt 0.870304 0.495409
vt 0.468345 0.427200
vt 0.468788 0.427546
vt 0.006989 0.508695
vt 0.007432 0.508461
vt 0.957477 0.495409
vt 0.957622 0.495962
vt 0.007178 0.727473
vt 0.006989 0.726924
vt 0.173150 0.206782
vt 0.173608 0.206489
vt 0.957622 0.714189
vt 0.957331 0.714421
vt 0.981121 0.275710
vt 0.981267 0.276263
vt 0.174624 0.476539
vt 0.174181 0.476194
vt 0.996447 0.517290
vt 0.996004 0.517523
vt 0.996257 0.298511
vt 0.996446 0.299060
vt 0.468787 0.696934
vt 0.468330 0.697225
vt 0.981267 0.494490
vt 0.980975 0.494722
vt 0.501187 0.340697
vt 0.501374 0.341214
vt 0.172833 0.113537
vt 0.173284 0.113238
vt 0.154547 0.934645
vt 0.154250 0.934862
vt 0.154400 0.715850
vt 0.154547 0.716403
vt 0.468346 0.334192
vt 0.468788 0.334541
vt 0.501374 0.559471
vt 0.500933 0.559704
vt 0.065285 0.934862
vt 0.065138 0.934309
vt 0.173466 0.202883
vt 0.173023 0.202535
vt 0.281689 0.727240
vt 0.281248 0.727473
vt 0.281500 0.508461
vt 0.281689 0.509010
vt 0.468788 0.423305
vt 0.468332 0.423601
vt 0.065138 0.716082
vt 0.065435 0.715850
vt 0.305472 0.999446
vt 0.305187 0.999663
vt 0.780867 0.495412
vt 0.781056 0.495929
vt 0.468787 0.785989
vt 0.468333 0.786274
vt 0.468344 0.700823
vt 0.468787 0.701166
vt 0.721747 0.298744
vt 0.722191 0.298511
vt 0.220166 0.999663
vt 0.220022 0.999111
vt 0.721937 0.517523
vt 0.721747 0.516974
vt 0.172835 0.481283
vt 0.173297 0.480992
vt 0.220022 0.780883
vt 0.220307 0.780652
vt 0.721936 0.737208
vt 0.721747 0.736659
vt 0.173549 0.298153
vt 0.174006 0.297860
vt 0.869339 0.714189
vt 0.869048 0.714421
vt 0.869193 0.495409
vt 0.869339 0.495962
vt 0.468345 0.518408
vt 0.468787 0.518754
vt 0.721747 0.518430
vt 0.722190 0.518196
vt 0.173962 0.567178
vt 0.173511 0.566836
vt 0.781056 0.714188
vt 0.780612 0.714421
vt 0.305328 0.780652
vt 0.305472 0.781204
vt 0.313617 0.081822
vt 0.313922 0.081330
vt 0.313593 0.081400
vt 0.313614 0.080866
vt 0.315556 0.568141
vt 0.316109 0.568536
vt 0.315129 0.568262
vt 0.315673 0.568163
vt 0.315510 0.567809
vt 0.309732 0.112948
vt 0.309535 0.112948
vt 0.364832 0.340697
vt 0.365296 0.340697
vt 0.365034 0.559704
vt 0.364838 0.559704
vt 0.332248 0.334192
vt 0.332712 0.334192
vt 0.361279 0.559704
vt 0.360816 0.559704
vt 0.332248 0.330633
vt 0.332444 0.330633
vt 0.332248 0.303163
vt 0.332554 0.302673
vt 0.332052 0.302673
vt 0.328167 0.298721
vt 0.328296 0.299185
vt 0.361273 0.340885
vt 0.361273 0.340698
vt 0.361077 0.340698
vt 0.309721 0.109380
vt 0.309256 0.109381
vt 0.644512 0.495412
vt 0.644976 0.495412
vt 0.332248 0.786274
vt 0.332444 0.786274
vt 0.311228 0.566093
vt 0.310762 0.566096
vt 0.644518 0.714421
vt 0.644714 0.714421
vt 0.327985 0.790232
vt 0.328296 0.790696
vt 0.328319 0.790160
vt 0.328296 0.789713
vt 0.313606 0.077766
vt 0.313918 0.077367
vt 0.309653 0.081551
vt 0.310050 0.081339
vt 0.309523 0.081341
vt 0.309654 0.081844
vt 0.328253 0.302694
vt 0.328693 0.302673
vt 0.328296 0.303175
vt 0.328296 0.302276
vt 0.327985 0.302673
vt 0.327308 0.302673
vt 0.327308 0.790232
vt 0.188173 0.330633
vt 0.454189 0.109078
vt 0.314607 0.081328
vt 0.315829 0.568193
vt 0.453154 0.567780
vt 0.454328 0.202346
vt 0.454313 0.205976
vt 0.454385 0.293778
vt 0.454353 0.297404
vt 0.454362 0.385085
vt 0.454314 0.388705
vt 0.454261 0.476215
vt 0.454187 0.479832
vt 0.188173 0.423601
vt 0.188173 0.427199
vt 0.188173 0.514809
vt 0.188173 0.518407
vt 0.188173 0.606017
vt 0.188173 0.609616
vt 0.188173 0.697225
vt 0.188173 0.700824
vt 0.188173 0.334192
vt 0.188173 0.786274
vt 0.454031 0.564907
vt 0.454191 0.112669
vt 0.146083 0.288776
vt 0.142595 0.507788
vt 0.142540 0.726965
vt 0.860896 0.517017
vt 0.860841 0.518197
vt 0.857353 0.737208
vt 0.146085 0.508462
vt 0.142595 0.727473
vt 0.860841 0.298512
vt 0.857356 0.517523
vt 0.506208 0.275710
vt 0.505535 0.483939
vt 0.500431 0.714420
vt 0.500432 0.495411
vt 0.188173 0.794184
vt 0.188173 0.790696
vt 0.455048 0.570324
vt 0.309340 0.081341
vt 0.313923 0.081330
vt 0.454123 0.077002
vt 0.188173 0.298721
vt 0.184221 0.302673
vt 0.332712 0.786274
vt 0.644979 0.495412
vt 0.310761 0.566097
vt 0.310231 0.566101
vt 0.645507 0.714421
vt 0.673030 0.275710
vt 0.673303 0.494224
vt 0.360284 0.341197
vt 0.327308 0.298721
vt 0.327990 0.298721
vt 0.332555 0.302673
vt 0.360813 0.559704
vt 0.360751 0.559704
vt 0.332712 0.330633
vt 0.332773 0.330633
vt 0.893657 0.276259
vt 0.006989 0.289329
vt 0.781729 0.495958
vt 0.281689 0.507235
vt 0.996447 0.736655
vt 0.870013 0.495958
vt 0.957276 0.495409
vt 0.006989 0.509014
vt 0.957622 0.713872
vt 0.870359 0.714421
vt 0.996447 0.516970
vt 0.981267 0.494173
vt 0.894003 0.494722
vt 0.980921 0.275710
vt 0.154547 0.934345
vt 0.281689 0.726920
vt 0.065138 0.716399
vt 0.154198 0.715850
vt 0.065487 0.934862
vt 0.220365 0.999663
vt 0.721747 0.299064
vt 0.220022 0.781201
vt 0.869339 0.713872
vt 0.721747 0.518749
vt 0.868993 0.495409
vt 0.782075 0.714421
vt 0.305129 0.780652
vt 0.305472 0.999146
vt 0.308741 0.112950
vt 0.500924 0.340697
vt 0.365827 0.340697
vt 0.333237 0.334192
vt 0.722207 0.517523
vt 0.995989 0.518196
vt 0.281233 0.508461
vt 0.722204 0.737208
vt 0.007447 0.727473
vt 0.007447 0.507788
vt 0.333237 0.786274
vt 0.780602 0.495412
vt 0.645507 0.495412
vt 0.281231 0.288776
vt 0.995989 0.298511
vt 0.313684 0.109370
vt 0.328296 0.330634
vt 0.328296 0.334192
vt 0.313901 0.206186
vt 0.313881 0.202579
vt 0.314107 0.297555
vt 0.314079 0.293952
vt 0.314315 0.388796
vt 0.314278 0.385200
vt 0.314524 0.479876
vt 0.314472 0.476272
vt 0.328297 0.423601
vt 0.328296 0.427199
vt 0.328297 0.514809
vt 0.328297 0.518407
vt 0.328296 0.606017
vt 0.328296 0.609616
vt 0.328296 0.697225
vt 0.328296 0.700824
vt 0.313695 0.112938
vt 0.314822 0.565239
vt 0.328296 0.786274
vt 0.332248 0.609616
vt 0.332248 0.606017
vt 0.310332 0.385217
vt 0.310361 0.388812
vt 0.332248 0.514809
vt 0.332248 0.427199
vt 0.309939 0.206197
vt 0.310125 0.293967
vt 0.332248 0.697225
vt 0.310521 0.476292
vt 0.332248 0.423601
vt 0.309922 0.202591
vt 0.640559 0.714421
vt 0.640554 0.495412
vt 0.332248 0.700824
vt 0.332248 0.518407
vt 0.310148 0.297569
vt 0.310545 0.479908
vt 0.313277 0.570176
vt 0.315296 0.568416
vt 0.328296 0.794184
vt 0.328760 0.790232
vt 0.332248 0.790232
vt 0.310050 0.081340
vt 0.365827 0.559704
vt 0.365301 0.559704
vt 0.309267 0.112949
vt 0.360748 0.340698
vt 0.360809 0.340698
vt 0.645343 0.494671
vt 0.645457 0.494722
vt 0.314590 0.077365
vt 0.308661 0.081460
vt 0.645343 0.275747
vt 0.333237 0.330517
vt 0.308926 0.109382
vt 0.174025 0.389183
vt 0.468602 0.609615
vt 0.468787 0.605895
vt 0.173920 0.385509
vt 0.173522 0.294260
vt 0.468788 0.514687
vt 0.468602 0.427200
vt 0.173150 0.206613
vt 0.174367 0.476539
vt 0.468787 0.697102
vt 0.172833 0.113365
vt 0.468603 0.334192
vt 0.501374 0.559152
vt 0.173209 0.202884
vt 0.468788 0.423476
vt 0.468787 0.786154
vt 0.468601 0.700823
vt 0.172834 0.481117
vt 0.173549 0.297984
vt 0.468602 0.518408
vt 0.173702 0.567180
vt 0.781056 0.713868
vt 0.313151 0.081332
vt 0.332248 0.302880
vt 0.331785 0.302673
vt 0.361273 0.340777
vt 0.644982 0.714421
vt 0.313606 0.077517
vt 0.506208 0.494722
vt 0.286524 0.483941
vt 0.184221 0.790232
vt 0.458101 0.080993
vt 0.365298 0.340697
s 1
usemtl Material.001
f 102/1/1 7/2/1 8/3/1
f 60/4/2 38/5/3 193/6/4
f 11/7/5 12/8/5 117/9/6
f 176/10/7 656/11/8 47/12/8
f 45/13/9 300/14/9 75/15/9
f 31/16/9 136/17/9 91/18/9
f 3/19/1 112/20/10 88/21/11
f 35/22/9 300/14/9 45/13/9
f 603/23/12 498/24/12 470/25/12
f 31/16/9 91/26/9 35/22/9
f 15/27/5 16/28/5 129/29/6
f 13/30/5 14/31/5 123/32/6
f 1/33/1 88/21/11 297/34/13
f 7/2/1 509/35/14 513/36/15
f 148/37/16 143/38/17 162/39/18
f 138/40/9 136/17/9 31/16/9
f 2/41/5 522/42/19 457/43/19
f 111/44/9 36/45/9 87/46/9
f 164/47/3 423/48/20 155/49/3
f 41/50/9 288/51/9 120/52/9
f 108/53/10 106/54/10 5/55/1
f 114/56/1 112/20/10 3/19/1
f 80/57/21 71/58/5 39/59/5
f 105/60/9 28/61/9 33/62/9
f 311/63/22 581/64/23 304/65/24
f 51/66/3 611/67/25 38/5/3
f 135/68/26 18/69/5 2/41/5
f 129/29/6 16/28/5 17/70/5
f 123/32/6 14/31/5 15/27/5
f 117/9/6 12/8/5 13/30/5
f 114/56/1 3/19/1 4/71/1
f 108/53/10 5/55/1 6/72/1
f 132/73/9 27/74/9 30/75/9
f 40/76/1 96/77/27 10/78/1
f 120/79/9 118/80/9 19/81/9
f 7/2/1 108/53/10 6/72/1
f 9/82/1 102/1/1 8/3/1
f 40/76/1 285/83/28 96/77/27
f 615/84/29 608/85/12 612/86/12
f 169/87/3 396/88/30 173/89/31
f 50/90/32 62/91/33 285/83/28
f 60/4/2 51/66/3 38/5/3
f 500/92/12 603/23/12 552/93/12
f 172/94/34 395/95/35 409/96/36
f 223/97/37 339/98/38 437/99/39
f 189/100/4 37/101/3 70/102/40
f 21/103/9 93/104/9 97/105/9
f 25/106/9 99/107/9 103/108/9
f 29/109/9 105/60/9 109/110/9
f 87/46/9 36/45/9 46/111/9
f 582/112/41 567/113/42 576/114/43
f 223/97/37 437/99/39 230/115/44
f 189/116/4 70/117/40 82/118/45
f 10/78/1 519/119/15 535/120/1
f 301/121/5 43/122/5 67/123/5
f 132/124/9 130/125/9 27/74/9
f 138/126/9 31/16/9 34/127/9
f 35/22/9 91/26/9 300/14/9
f 74/128/46 68/129/8 182/130/47
f 190/131/48 81/132/9 288/133/9
f 13/30/5 489/134/49 14/31/5
f 126/135/9 23/136/9 26/137/9
f 38/138/3 37/139/3 189/140/4
f 223/141/37 547/142/15 202/143/50
f 250/144/16 245/145/17 229/146/18
f 272/147/51 402/148/52 388/149/1
f 182/150/47 198/151/53 196/152/54
f 23/153/9 25/154/9 26/155/9
f 265/156/55 559/157/56 244/158/57
f 164/47/3 429/159/58 423/48/20
f 31/160/9 33/161/9 34/162/9
f 19/163/9 21/164/9 22/165/9
f 244/166/57 635/167/14 230/168/44
f 258/169/59 359/170/60 353/171/61
f 156/172/62 417/173/5 291/174/5
f 27/175/9 29/176/9 30/177/9
f 172/94/34 409/96/36 279/178/63
f 30/177/9 24/179/9 23/153/9
f 34/162/9 28/180/9 27/175/9
f 35/181/9 32/182/9 31/160/9
f 195/183/64 199/184/65 46/185/9
f 41/186/9 42/187/9 192/188/9
f 183/189/66 597/190/67 310/191/68
f 26/155/9 20/192/9 19/163/9
f 22/165/9 42/193/9 41/194/9
f 494/195/12 564/196/12 546/197/12
f 190/198/48 288/51/9 41/50/9
f 292/199/8 416/200/8 451/201/69
f 120/202/9 19/81/9 22/203/9
f 142/204/70 318/205/71 202/206/50
f 8/3/1 513/36/15 515/207/14
f 286/208/9 21/103/9 97/105/9
f 41/50/9 120/202/9 22/203/9
f 96/77/27 9/82/1 10/78/1
f 45/209/9 36/210/9 35/181/9
f 149/211/72 561/212/19 537/213/19
f 74/214/46 182/215/47 196/216/54
f 634/217/12 558/218/12 482/219/12
f 177/220/12 184/221/12 312/222/12
f 48/223/1 655/224/1 467/225/1
f 61/226/9 192/227/9 42/228/9
f 43/122/5 460/229/73 67/123/5
f 361/230/12 368/231/12 345/232/12
f 443/233/12 338/234/12 333/235/12
f 424/236/12 452/237/12 415/238/12
f 424/236/12 431/239/12 452/237/12
f 443/233/12 438/240/12 338/234/12
f 252/241/8 352/242/74 347/243/75
f 279/244/63 575/245/76 172/94/34
f 278/246/77 264/247/18 259/248/78
f 169/87/3 387/249/3 396/88/30
f 251/250/79 553/251/19 258/169/59
f 217/252/16 201/253/80 210/254/81
f 294/255/82 626/256/83 614/257/84
f 215/258/85 541/259/19 631/260/6
f 202/261/50 565/262/14 142/263/70
f 291/174/5 622/264/19 156/172/62
f 230/265/44 543/266/14 223/267/37
f 156/172/62 561/212/19 149/211/72
f 156/172/62 622/264/19 561/212/19
f 237/268/59 332/269/86 215/258/85
f 150/270/8 375/271/87 141/272/8
f 1/33/1 471/273/15 497/274/14
f 458/275/12 595/276/88 648/277/12
f 16/28/5 473/278/19 17/70/5
f 546/279/12 488/280/12 486/281/12
f 634/217/12 482/282/12 480/283/12
f 524/284/12 637/285/12 492/286/12
f 540/287/12 510/288/12 506/289/12
f 556/290/12 476/291/12 474/292/12
f 15/27/5 479/293/19 483/294/49
f 550/295/12 504/296/12 500/92/12
f 5/55/1 507/297/15 6/72/1
f 562/298/12 516/299/12 512/300/12
f 512/300/12 540/287/12 538/301/12
f 44/302/1 471/273/15 1/33/1
f 14/31/5 489/134/49 479/303/19
f 612/304/12 642/305/12 534/306/12
f 524/307/12 625/308/89 637/309/12
f 3/19/1 501/310/15 4/71/1
f 12/8/5 495/311/49 485/312/19
f 615/313/29 534/306/12 518/314/12
f 38/138/3 611/315/25 609/316/3
f 39/59/5 525/317/90 491/318/19
f 518/314/12 562/298/12 621/319/12
f 582/112/41 595/320/88 567/113/42
f 576/321/43 470/25/12 468/322/12
f 38/138/3 609/323/3 37/139/3
f 198/324/53 47/12/8 55/325/8
f 183/189/66 649/326/91 597/190/67
f 9/82/1 515/207/14 519/119/15
f 209/327/59 325/328/60 381/329/61
f 556/330/12 605/331/12 476/291/12
f 203/332/3 317/333/58 326/334/92
f 521/335/12 567/336/42 595/337/88
f 305/338/93 583/339/94 588/340/95
f 258/169/59 353/171/61 251/341/79
f 11/7/5 495/311/49 12/8/5
f 528/342/12 625/343/89 524/307/12
f 51/66/3 640/344/96 611/67/25
f 13/30/5 485/345/19 489/346/49
f 244/347/57 346/348/38 367/349/39
f 3/19/1 497/274/14 501/310/15
f 5/55/1 503/350/14 507/297/15
f 237/268/59 631/260/6 549/351/19
f 209/327/59 381/329/61 149/211/72
f 231/352/3 436/353/58 445/354/20
f 149/211/72 537/355/19 209/327/59
f 173/89/31 569/356/3 169/87/3
f 488/357/12 544/358/12 634/359/12
f 278/246/77 273/360/17 264/361/18
f 272/147/51 388/149/1 170/362/1
f 16/28/5 483/363/49 473/364/19
f 266/365/3 366/366/97 360/367/20
f 251/341/79 549/351/19 553/251/19
f 99/107/9 29/109/9 109/110/9
f 61/368/9 42/228/9 286/208/9
f 19/81/9 118/80/9 126/369/9
f 48/223/1 467/225/1 44/302/1
f 71/58/5 525/317/90 39/59/5
f 135/370/26 2/41/5 90/371/26
f 90/371/26 2/41/5 43/122/5
f 87/46/9 46/111/9 298/372/98
f 582/373/41 468/322/12 654/374/12
f 27/74/9 138/126/9 34/127/9
f 27/74/9 130/125/9 138/375/9
f 23/136/9 124/376/9 132/377/9
f 71/378/5 529/379/99 525/380/90
f 6/72/1 507/297/15 509/35/14
f 17/70/5 18/69/5 135/68/26
f 129/381/6 17/70/5 139/382/6
f 458/275/12 648/277/12 461/383/100
f 3/19/1 88/21/11 1/33/1
f 294/255/82 614/384/84 292/199/8
f 117/385/6 13/30/5 127/386/6
f 93/104/9 20/387/9 25/106/9
f 99/107/9 24/388/9 29/109/9
f 521/335/12 595/337/88 458/275/12
f 29/109/9 28/61/9 105/60/9
f 90/371/26 43/122/5 301/121/5
f 44/302/1 297/34/13 53/389/1
f 17/70/5 135/68/26 139/382/6
f 15/27/5 129/29/6 133/390/6
f 13/30/5 123/32/6 127/386/6
f 11/7/5 117/391/6 121/392/6
f 33/62/9 111/44/9 115/393/9
f 105/60/9 33/62/9 115/393/9
f 19/81/9 126/135/9 26/137/9
f 93/104/9 25/106/9 103/108/9
f 111/44/9 32/394/9 36/45/9
f 4/71/1 106/54/10 114/56/1
f 7/2/1 100/395/10 108/53/10
f 9/82/1 94/396/10 102/1/1
f 615/84/29 625/397/89 608/85/12
f 170/362/1 606/398/27 272/399/51
f 50/90/32 285/83/28 40/76/1
f 177/220/12 312/222/12 303/400/12
f 4/71/1 501/310/15 503/350/14
f 286/208/9 42/228/9 21/103/9
f 231/401/3 445/354/20 236/402/3
f 40/76/1 535/120/1 641/403/1
f 21/103/9 20/387/9 93/104/9
f 25/106/9 24/388/9 99/107/9
f 4/71/1 5/55/1 106/54/10
f 33/62/9 32/394/9 111/44/9
f 615/313/29 518/314/12 621/319/12
f 216/404/8 331/405/74 340/406/87
f 37/101/3 527/407/3 70/102/40
f 562/298/12 512/408/12 538/409/12
f 68/129/8 647/410/8 182/130/47
f 123/411/6 15/27/5 133/390/6
f 23/136/9 132/73/9 30/75/9
f 96/412/27 94/396/10 9/82/1
f 40/76/1 641/403/1 50/90/32
f 68/129/8 462/413/8 647/410/8
f 12/8/5 485/345/19 13/30/5
f 289/414/26 11/7/5 121/392/6
f 80/415/21 39/59/5 289/416/26
f 209/327/59 541/259/19 215/258/85
f 230/417/44 635/167/14 543/418/14
f 279/178/63 602/419/19 575/245/76
f 182/150/47 176/420/7 198/151/53
f 23/153/9 24/179/9 25/154/9
f 1/33/1 297/34/13 44/302/1
f 31/160/9 32/182/9 33/161/9
f 19/163/9 20/192/9 21/164/9
f 237/268/59 549/351/19 251/341/79
f 272/421/51 555/422/14 265/423/55
f 142/424/70 565/262/14 638/425/10
f 27/175/9 28/180/9 29/176/9
f 170/362/1 568/426/101 606/427/27
f 30/177/9 29/176/9 24/179/9
f 34/162/9 33/161/9 28/180/9
f 35/181/9 36/210/9 32/182/9
f 298/372/98 46/111/9 199/428/65
f 38/138/3 189/140/4 193/429/4
f 176/10/7 590/430/8 656/11/8
f 26/155/9 25/154/9 20/192/9
f 22/165/9 21/164/9 42/193/9
f 637/285/12 494/431/12 492/286/12
f 195/183/64 46/185/9 45/209/9
f 295/432/102 450/433/103 430/434/104
f 126/435/9 124/376/9 23/136/9
f 142/204/70 374/436/105 318/205/71
f 540/287/12 506/289/12 632/437/12
f 102/1/1 100/395/10 7/2/1
f 291/174/5 616/438/106 622/264/19
f 289/416/26 39/59/5 11/7/5
f 45/209/9 46/185/9 36/210/9
f 156/172/62 422/439/107 417/173/5
f 45/13/9 75/15/9 195/440/64
f 14/31/5 479/293/19 15/27/5
f 311/441/22 596/442/108 581/443/23
f 298/372/98 199/428/65 54/444/109
f 203/332/3 326/334/92 208/445/3
f 301/446/5 67/447/5 73/448/5
f 394/449/12 389/450/12 401/451/12
f 324/452/12 373/453/12 382/454/12
f 394/449/12 401/451/12 410/455/12
f 43/122/5 457/456/19 460/229/73
f 361/230/12 345/232/12 354/457/12
f 258/169/59 553/251/19 602/419/19
f 173/89/31 574/458/3 569/459/3
f 265/156/55 555/422/14 559/460/56
f 272/421/51 606/398/27 555/422/14
f 244/166/57 559/157/56 635/167/14
f 202/461/50 547/142/15 565/462/14
f 292/199/8 451/201/69 294/255/82
f 252/241/8 347/243/75 243/463/8
f 148/37/16 162/39/18 157/464/78
f 163/465/110 638/466/10 624/467/111
f 223/141/37 543/266/14 547/142/15
f 209/327/59 537/468/19 541/469/19
f 163/470/110 624/471/111 295/432/102
f 215/258/85 631/260/6 237/268/59
f 142/472/70 638/466/10 163/473/110
f 44/302/1 467/225/1 471/273/15
f 18/69/5 522/42/19 2/41/5
f 476/474/12 567/475/42 521/335/12
f 637/476/12 564/196/12 494/195/12
f 546/477/12 544/358/12 488/357/12
f 500/92/12 498/24/12 603/23/12
f 506/289/12 550/295/12 632/437/12
f 15/27/5 483/363/49 16/28/5
f 17/70/5 477/478/49 18/69/5
f 1/33/1 497/274/14 3/19/1
f 4/71/1 503/350/14 5/55/1
f 6/72/1 509/35/14 7/2/1
f 7/2/1 513/36/15 8/3/1
f 17/70/5 473/278/19 477/479/49
f 482/219/12 558/218/12 556/330/12
f 10/78/1 535/120/1 40/76/1
f 37/101/3 609/480/3 527/407/3
f 506/289/12 504/296/12 550/295/12
f 11/7/5 491/481/19 495/482/49
f 8/3/1 515/207/14 9/82/1
f 528/342/12 608/483/12 625/484/89
f 9/82/1 519/119/15 10/78/1
f 582/373/41 654/374/12 589/485/100
f 2/41/5 457/456/19 43/122/5
f 576/321/43 468/322/12 582/373/41
f 198/324/53 176/10/7 47/12/8
f 41/186/9 192/188/9 190/486/48
f 512/300/12 510/288/12 540/287/12
f 216/404/8 340/406/87 222/487/8
f 482/282/12 556/290/12 474/292/12
f 250/144/16 229/146/18 238/488/78
f 518/314/12 516/299/12 562/298/12
f 324/452/12 319/489/12 373/453/12
f 266/365/3 360/367/20 257/490/3
f 39/59/5 491/481/19 11/7/5
f 476/291/12 605/331/12 567/336/42
f 612/304/12 534/306/12 615/313/29
f 488/280/12 634/491/12 480/283/12
f 280/492/8 403/493/112 271/494/8
f 603/23/12 470/25/12 576/321/43
f 550/295/12 500/92/12 552/93/12
f 237/268/59 444/495/113 332/269/86
f 150/270/8 380/496/114 375/271/87
f 244/347/57 367/349/39 265/497/55
f 217/252/16 224/498/17 201/253/80
f 295/432/102 430/434/104 163/470/110
f 494/195/12 546/279/12 486/281/12
f 258/169/59 602/419/19 279/178/63
f 305/338/93 588/340/95 175/499/5
f 18/69/5 477/478/49 522/500/19
f 280/492/8 408/501/115 403/493/112
f 53/389/116 57/502/117 59/503/118
f 58/504/119 56/505/120 54/444/109
f 55/325/121 57/502/117 58/506/119
f 60/4/2 64/507/122 66/508/123
f 61/368/9 64/507/122 63/509/124
f 62/91/33 64/507/122 65/510/125
f 73/448/126 77/511/127 79/512/128
f 78/513/129 76/514/130 74/214/46
f 75/15/131 77/511/127 78/515/129
f 80/415/21 84/516/132 86/517/133
f 81/132/9 84/516/132 83/518/134
f 82/118/45 84/516/132 85/519/135
f 141/272/136 145/520/137 147/521/138
f 146/522/139 144/522/140 142/472/70
f 143/38/17 145/523/137 146/520/139
f 148/37/16 152/524/141 154/525/142
f 153/526/143 151/527/144 149/211/72
f 150/270/145 152/528/141 153/529/143
f 155/49/146 159/530/147 161/531/148
f 160/532/149 158/532/150 156/172/62
f 157/464/78 159/533/147 160/530/149
f 162/39/18 166/534/151 168/535/152
f 167/536/153 165/537/154 163/470/110
f 164/47/155 166/538/151 167/539/153
f 178/540/156 181/541/157 175/499/158
f 180/542/159 178/543/156 176/420/7
f 181/544/157 180/542/159 177/220/160
f 185/545/161 188/546/162 182/130/47
f 187/547/163 185/548/161 183/189/66
f 188/549/162 187/550/163 184/221/164
f 201/253/80 205/551/165 207/552/166
f 206/553/167 204/554/168 202/206/50
f 203/332/169 205/555/165 206/556/167
f 208/445/170 212/557/171 214/558/148
f 213/559/172 211/559/173 209/327/59
f 210/254/81 212/560/171 213/557/172
f 218/561/174 221/562/175 215/258/85
f 216/404/145 219/563/176 218/564/174
f 217/252/16 219/565/176 220/566/177
f 222/487/178 226/567/179 228/568/180
f 227/569/181 225/569/182 223/141/37
f 224/498/17 226/570/179 227/567/181
f 229/146/18 233/571/183 235/572/166
f 234/573/184 232/574/168 230/115/44
f 231/401/169 233/575/183 234/576/184
f 236/402/185 240/577/147 242/578/186
f 241/579/172 239/579/187 237/268/59
f 238/488/78 240/580/147 241/577/172
f 243/463/178 247/581/188 249/582/189
f 248/583/181 246/583/190 244/166/57
f 245/145/17 247/584/188 248/581/181
f 250/144/16 254/585/191 256/586/142
f 255/587/192 253/588/144 251/341/79
f 252/241/193 254/589/191 255/590/192
f 257/490/194 261/591/195 263/592/148
f 262/593/196 260/593/197 258/169/59
f 259/248/78 261/594/195 262/591/196
f 264/361/18 268/595/183 270/596/166
f 269/597/198 267/598/199 265/497/55
f 266/365/200 268/599/183 269/600/198
f 271/494/178 275/601/201 277/602/202
f 276/603/203 274/603/204 272/421/51
f 273/360/17 275/604/201 276/601/203
f 278/246/77 282/605/205 284/606/206
f 283/607/207 281/608/208 279/178/63
f 280/492/209 282/609/205 283/610/207
f 303/400/210 307/611/211 309/612/212
f 304/65/24 307/613/211 306/614/213
f 309/615/212 308/616/214 305/338/93
f 313/617/215 316/618/216 310/191/68
f 311/63/22 314/619/217 313/620/215
f 312/222/218 314/621/217 315/622/219
f 317/333/58 321/623/220 323/624/221
f 322/625/222 320/626/223 318/205/71
f 319/489/224 321/627/220 322/628/222
f 324/452/225 328/629/226 330/630/227
f 329/631/228 327/632/229 325/328/60
f 326/334/92 328/633/226 329/634/228
f 331/405/74 335/635/230 337/636/231
f 336/637/232 334/638/233 332/269/86
f 333/235/234 335/639/230 336/640/232
f 338/234/235 342/641/236 344/642/237
f 343/643/238 341/644/239 339/98/38
f 340/406/87 342/645/236 343/646/238
f 345/232/235 349/647/240 351/648/237
f 350/649/238 348/650/239 346/348/38
f 347/243/75 349/651/240 350/652/238
f 352/242/74 356/653/241 358/654/231
f 357/655/232 355/656/233 353/171/61
f 354/457/234 356/657/241 357/658/232
f 362/659/242 365/660/243 359/170/60
f 360/367/20 363/661/244 362/662/242
f 361/230/245 363/663/244 364/664/246
f 366/366/97 370/665/247 372/666/221
f 371/667/222 369/668/248 367/349/39
f 368/231/224 370/669/247 371/670/222
f 373/453/235 377/671/249 379/672/237
f 378/673/250 376/674/239 374/436/105
f 375/271/87 377/675/249 378/676/250
f 380/496/114 384/677/230 386/678/231
f 385/679/232 383/680/233 381/329/61
f 382/454/234 384/681/230 385/682/232
f 387/249/251 391/683/252 393/684/253
f 392/685/254 390/686/255 388/149/256
f 389/450/257 391/687/252 392/688/254
f 394/449/258 398/689/259 400/690/260
f 399/691/261 397/692/262 395/95/35
f 396/88/30 398/693/259 399/694/261
f 401/451/263 405/695/264 407/696/265
f 406/697/266 404/698/267 402/148/52
f 403/493/112 405/699/264 406/700/266
f 408/501/115 412/701/268 414/702/269
f 413/703/270 411/704/271 409/96/36
f 410/455/272 412/705/268 413/706/270
f 415/238/273 419/707/274 421/708/275
f 416/200/276 419/709/274 418/710/277
f 421/711/275 420/712/278 417/173/279
f 425/713/280 428/714/281 422/439/107
f 423/48/20 426/715/282 425/716/280
f 424/236/283 426/717/282 427/718/284
f 429/159/58 433/719/285 435/720/286
f 434/721/287 432/722/288 430/434/104
f 431/239/289 433/723/285 434/724/287
f 436/353/58 440/725/220 442/726/221
f 441/727/222 439/728/290 437/99/39
f 438/240/291 440/729/220 441/730/222
f 443/233/225 447/731/292 449/732/227
f 448/733/242 446/734/229 444/495/113
f 445/354/20 447/735/292 448/736/242
f 453/737/293 456/738/294 450/433/103
f 451/201/69 454/739/295 453/740/293
f 452/237/296 454/741/295 455/742/297
f 463/743/298 466/744/299 460/229/73
f 461/383/100 464/745/300 463/743/298
f 462/413/301 464/745/300 465/746/302
f 527/407/303 531/747/304 533/748/305
f 528/342/306 531/747/304 530/749/307
f 533/750/305 532/751/308 529/379/99
f 570/752/309 573/752/310 567/336/42
f 568/426/101 571/753/311 570/752/309
f 569/459/312 571/754/311 572/755/313
f 574/458/314 578/756/315 580/757/316
f 575/245/76 578/758/315 577/759/317
f 580/757/316 579/757/318 576/114/43
f 581/443/23 585/760/319 587/761/320
f 586/762/321 584/762/322 582/373/41
f 583/339/94 585/763/319 586/762/321
f 591/764/298 594/765/323 588/340/95
f 589/485/100 592/766/300 591/764/298
f 590/430/324 592/767/300 593/768/325
f 598/769/326 601/770/327 595/320/88
f 596/442/108 599/771/328 598/769/326
f 597/190/67 599/772/328 600/773/329
f 614/257/84 618/774/330 620/775/331
f 619/776/332 617/776/333 615/313/29
f 616/438/106 618/777/330 619/776/332
f 624/467/111 628/778/334 630/779/335
f 629/780/336 627/780/337 625/397/89
f 626/256/83 628/781/334 629/780/336
f 643/782/338 646/783/339 640/344/96
f 641/403/340 644/784/341 643/782/338
f 642/305/342 644/784/341 645/785/343
f 650/786/344 653/787/345 647/410/346
f 648/277/347 651/788/348 650/789/344
f 649/326/91 651/790/348 652/791/349
f 654/374/350 658/792/351 660/793/352
f 655/224/353 658/792/351 657/794/354
f 660/795/352 659/796/355 656/11/356
f 47/12/357 59/503/118 55/325/121
f 49/797/358 53/389/116 59/503/118
f 60/4/2 52/798/359 51/66/360
f 52/798/359 62/91/33 50/90/32
f 54/444/109 299/799/361 298/372/98
f 56/505/120 297/34/13 299/799/361
f 301/446/362 79/512/128 302/800/363
f 302/800/363 75/15/131 300/14/364
f 74/128/46 69/801/365 68/129/8
f 76/514/130 67/447/5 69/801/365
f 82/118/45 72/802/366 86/803/133
f 86/803/133 71/58/367 80/57/21
f 138/40/9 137/804/368 136/17/9
f 140/805/368 135/68/26 137/804/368
f 132/124/9 131/806/368 130/125/9
f 134/807/368 129/29/6 131/806/368
f 126/435/9 125/808/368 124/376/9
f 128/809/368 123/32/6 125/808/368
f 120/79/9 119/810/368 118/80/9
f 122/811/368 117/391/6 119/810/368
f 114/56/1 113/812/369 112/20/10
f 116/813/369 111/44/9 113/812/369
f 108/53/10 107/814/369 106/54/10
f 110/815/369 105/60/9 107/814/369
f 102/1/1 101/816/369 100/395/10
f 104/817/369 99/107/9 101/816/369
f 96/412/27 95/818/369 94/396/10
f 98/819/369 93/104/9 95/818/369
f 115/393/9 107/814/369 105/60/9
f 116/813/369 106/54/10 107/814/369
f 87/46/370 113/812/369 111/44/9
f 89/820/371 112/20/10 113/812/369
f 109/110/9 101/816/369 99/107/9
f 110/815/369 100/395/10 101/816/369
f 103/108/9 95/818/369 93/104/9
f 104/817/369 94/396/10 95/818/369
f 97/105/9 287/821/369 286/208/9
f 98/819/369 285/83/28 287/821/369
f 121/392/6 290/822/368 289/414/26
f 122/811/368 288/51/9 290/822/368
f 127/386/6 119/810/368 117/385/6
f 128/809/368 118/80/9 119/810/368
f 133/390/6 125/808/368 123/411/6
f 134/807/368 124/376/9 125/808/368
f 139/382/6 131/806/368 129/381/6
f 140/805/368 130/125/9 131/806/368
f 90/371/26 137/804/368 135/370/26
f 92/823/368 136/17/9 137/804/368
f 203/332/169 214/558/148 207/552/166
f 207/552/166 210/254/81 201/253/80
f 215/258/85 213/559/172 209/327/59
f 221/824/175 210/254/81 213/557/172
f 216/404/145 228/568/180 220/566/177
f 220/566/177 224/498/17 217/252/16
f 202/143/50 227/569/181 223/141/37
f 204/825/168 224/498/17 227/567/181
f 245/145/17 256/586/142 249/582/189
f 249/582/189 252/241/193 243/463/178
f 259/248/78 270/826/166 263/592/148
f 263/592/148 266/365/200 257/490/194
f 143/38/17 154/525/142 147/827/138
f 147/827/138 150/270/145 141/272/136
f 175/499/158 309/615/212 305/338/93
f 181/544/157 303/400/210 309/612/212
f 176/420/7 188/549/162 180/542/159
f 180/542/159 184/221/164 177/220/160
f 273/360/17 284/606/206 277/602/202
f 277/602/202 280/492/209 271/494/178
f 157/464/78 168/535/152 161/531/148
f 161/531/148 164/47/155 155/49/146
f 231/401/169 242/578/186 235/572/166
f 235/572/166 238/488/78 229/146/18
f 251/341/79 241/579/172 237/268/59
f 253/828/144 238/488/78 241/577/172
f 230/168/44 248/583/181 244/166/57
f 232/829/168 245/145/17 248/581/181
f 279/178/63 262/593/196 258/169/59
f 281/830/208 259/248/78 262/591/196
f 265/423/55 276/603/203 272/421/51
f 267/831/199 273/360/17 276/601/203
f 149/211/72 160/532/149 156/172/62
f 151/832/144 157/464/78 160/530/149
f 163/473/110 146/522/139 142/472/70
f 165/833/154 143/38/17 146/520/139
f 198/151/53 197/834/372 196/152/54
f 197/835/372 199/184/65 195/183/64
f 192/188/9 191/836/373 190/486/48
f 194/837/373 189/140/4 191/836/373
f 70/102/40 533/750/305 72/802/366
f 72/802/366 529/379/99 71/378/367
f 60/4/2 194/838/373 63/839/124
f 63/509/124 192/227/9 61/226/9
f 82/118/45 191/840/373 189/116/4
f 85/519/135 190/131/48 191/840/373
f 183/189/66 653/841/345 649/326/91
f 185/545/161 647/410/346 653/787/345
f 460/229/73 69/801/365 67/123/5
f 466/842/299 68/129/8 69/801/365
f 74/214/46 197/843/372 78/513/129
f 78/515/129 195/440/64 75/15/131
f 55/325/121 200/844/374 198/324/53
f 58/504/119 199/428/65 200/845/374
f 291/174/375 620/846/331 616/438/106
f 620/847/331 292/199/376 614/384/84
f 295/432/102 630/848/335 296/849/377
f 296/850/377 626/256/83 294/255/82
f 61/368/9 287/821/369 65/510/125
f 65/510/125 285/83/28 62/91/33
f 289/416/26 83/518/134 80/415/21
f 290/822/368 81/132/9 83/518/134
f 298/372/98 89/820/371 87/46/370
f 299/799/361 88/21/11 89/820/371
f 301/121/362 92/823/368 90/371/26
f 302/800/363 91/26/9 92/823/368
f 310/191/68 187/547/163 183/189/66
f 316/851/216 184/221/164 187/550/163
f 312/222/218 306/852/213 303/400/210
f 315/853/219 304/65/24 306/614/213
f 590/430/324 178/854/156 594/855/323
f 594/856/323 175/499/158 588/340/95
f 304/65/24 587/857/320 308/858/214
f 587/859/320 305/338/93 308/860/214
f 324/452/225 323/861/221 319/489/224
f 330/862/227 317/333/58 323/624/221
f 338/234/235 337/863/231 333/235/234
f 344/864/237 331/405/74 337/636/231
f 352/242/74 351/865/237 347/243/75
f 358/866/231 345/232/235 351/648/237
f 359/170/60 357/655/232 353/171/61
f 365/867/243 354/457/234 357/658/232
f 366/366/97 364/868/246 360/367/20
f 372/869/221 361/230/245 364/664/246
f 346/348/38 371/667/222 367/349/39
f 348/870/239 368/231/224 371/670/222
f 380/496/114 379/871/237 375/271/87
f 386/872/231 373/453/235 379/672/237
f 325/328/60 385/679/232 381/329/61
f 327/873/229 382/454/234 385/682/232
f 374/436/105 322/625/222 318/205/71
f 376/874/239 319/489/224 322/628/222
f 389/450/257 400/690/260 393/875/253
f 393/684/253 396/88/30 387/249/251
f 408/501/115 407/876/265 403/493/112
f 414/877/269 401/451/263 407/696/265
f 395/95/35 413/703/270 409/96/36
f 397/878/262 410/455/272 413/706/270
f 402/148/52 392/685/254 388/149/256
f 404/879/267 389/450/257 392/688/254
f 422/439/107 421/711/275 417/173/279
f 428/880/281 415/238/273 421/708/275
f 429/159/58 427/881/284 423/48/20
f 435/882/286 424/236/283 427/718/284
f 443/233/225 442/883/221 438/240/291
f 449/884/227 436/353/58 442/726/221
f 444/495/113 336/637/232 332/269/86
f 446/885/229 333/235/234 336/640/232
f 339/98/38 441/727/222 437/99/39
f 341/886/239 438/240/291 441/730/222
f 450/433/103 434/721/287 430/434/104
f 456/887/294 431/239/289 434/724/287
f 415/238/273 455/742/297 418/888/277
f 418/710/277 451/201/69 416/200/276
f 388/149/256 171/889/378 170/362/379
f 390/890/255 169/87/380 171/891/378
f 395/95/35 174/892/381 399/691/261
f 399/694/261 173/89/31 396/88/30
f 294/255/82 453/740/293 296/850/377
f 296/849/377 450/433/103 295/432/102
f 164/47/155 432/893/288 429/159/58
f 167/536/153 430/434/104 432/722/288
f 353/171/61 255/587/192 251/341/79
f 355/894/233 252/241/193 255/590/192
f 346/348/38 246/583/190 350/649/238
f 350/652/238 243/463/178 347/243/75
f 409/96/36 283/607/207 279/178/63
f 411/895/271 280/492/209 283/610/207
f 402/148/52 274/603/204 406/697/266
f 406/700/266 271/494/178 403/493/112
f 437/99/39 234/573/184 230/115/44
f 439/896/290 231/352/169 234/576/184
f 444/495/113 239/579/187 448/733/242
f 448/736/242 236/402/185 445/354/20
f 257/490/194 362/662/242 260/591/197
f 260/593/197 359/170/60 258/169/59
f 367/349/39 269/597/198 265/497/55
f 369/897/248 266/365/200 269/600/198
f 318/205/71 206/553/167 202/206/50
f 320/898/223 203/332/169 206/556/167
f 325/328/60 211/559/173 329/631/228
f 329/634/228 208/445/170 326/334/92
f 417/173/279 293/899/382 291/174/375
f 420/900/278 292/199/376 293/901/382
f 216/404/145 334/902/233 331/405/74
f 218/561/174 332/269/86 334/638/233
f 381/329/61 153/526/143 149/211/72
f 383/903/233 150/270/145 153/529/143
f 374/436/105 144/522/140 378/673/250
f 378/676/250 141/272/136 375/271/87
f 155/49/146 425/716/280 158/530/150
f 158/532/150 422/439/107 156/172/62
f 222/487/178 343/646/238 225/567/182
f 225/569/182 339/98/38 223/97/37
f 461/383/100 459/904/383 458/275/12
f 463/743/298 457/456/19 459/904/383
f 470/25/12 469/905/384 468/322/385
f 472/906/386 467/225/387 469/905/384
f 476/291/12 475/907/383 474/292/12
f 478/908/383 473/278/19 475/907/383
f 482/282/12 481/909/383 480/283/12
f 484/910/383 479/293/19 481/909/383
f 488/280/12 487/911/383 486/281/12
f 490/912/383 485/345/19 487/911/383
f 494/431/12 493/913/383 492/286/12
f 496/914/383 491/481/19 493/913/383
f 500/92/12 499/915/386 498/24/12
f 502/916/386 497/274/14 499/915/386
f 506/289/12 505/917/386 504/296/12
f 508/918/386 503/350/14 505/917/386
f 512/300/12 511/919/386 510/288/12
f 514/920/386 509/35/14 511/919/386
f 518/314/12 517/921/386 516/299/12
f 520/922/386 515/207/14 517/921/386
f 477/478/49 523/923/383 522/500/19
f 478/908/383 521/335/12 523/923/383
f 471/273/15 499/915/386 497/274/14
f 472/906/386 498/24/12 499/915/386
f 504/296/12 502/916/386 500/92/12
f 505/917/386 501/310/15 502/916/386
f 483/363/49 475/907/383 473/364/19
f 484/910/383 474/292/12 475/907/383
f 489/134/49 481/909/383 479/303/19
f 490/912/383 480/283/12 481/909/383
f 507/297/15 511/919/386 509/35/14
f 508/918/386 510/288/12 511/919/386
f 495/311/49 487/911/383 485/312/19
f 496/914/383 486/281/12 487/911/383
f 513/36/15 517/921/386 515/207/14
f 514/920/386 516/299/12 517/921/386
f 525/380/90 532/751/308 526/924/383
f 526/924/383 528/342/306 524/307/12
f 519/119/15 536/925/388 535/120/389
f 520/922/386 534/306/390 536/925/388
f 540/287/12 539/926/383 538/301/12
f 542/927/383 537/468/19 539/926/383
f 546/477/12 545/928/386 544/358/12
f 548/929/386 543/266/14 545/928/386
f 552/93/12 551/930/383 550/295/12
f 554/931/383 549/351/19 551/930/383
f 558/218/12 557/932/386 556/330/12
f 560/933/386 555/422/14 557/932/386
f 538/409/12 563/934/383 562/298/12
f 539/926/383 561/212/19 563/934/383
f 564/196/12 548/929/386 546/197/12
f 566/935/386 547/142/15 548/929/386
f 569/459/312 580/757/316 573/754/310
f 580/757/316 567/113/42 573/754/310
f 589/485/100 586/762/321 582/373/41
f 591/764/298 583/339/94 586/762/321
f 603/23/12 579/758/318 604/936/383
f 604/936/383 575/245/76 602/419/19
f 605/331/12 570/752/309 567/336/42
f 607/937/386 568/426/101 570/752/309
f 611/315/25 610/938/391 609/316/392
f 613/939/393 608/85/394 610/938/391
f 621/319/12 619/776/332 615/313/29
f 623/940/383 616/438/106 619/776/332
f 550/295/12 633/941/383 632/437/12
f 551/930/383 631/260/6 633/941/383
f 634/217/12 560/933/386 558/218/12
f 636/942/386 559/157/56 560/933/386
f 603/23/12 554/931/383 552/93/12
f 604/936/383 553/251/19 554/931/383
f 556/330/12 607/937/386 605/331/12
f 557/932/386 606/398/27 607/937/386
f 562/298/12 623/940/383 621/319/12
f 563/934/383 622/264/19 623/940/383
f 637/476/12 566/935/386 564/196/12
f 639/943/386 565/262/14 566/935/386
f 632/437/12 542/927/383 540/287/12
f 633/941/383 541/259/19 542/927/383
f 544/358/12 636/942/386 634/359/12
f 545/928/386 635/167/14 636/942/386
f 527/407/303 610/944/391 530/945/307
f 530/945/307 608/483/394 528/342/306
f 640/344/96 613/946/393 611/67/25
f 646/947/339 612/304/395 613/948/393
f 647/410/346 465/746/302 650/786/344
f 650/949/344 461/383/100 648/277/347
f 656/11/356 593/768/325 660/795/352
f 660/793/352 589/485/100 654/374/350
f 525/317/90 493/913/383 491/318/19
f 526/924/383 492/286/12 493/913/383
f 641/403/340 536/925/388 645/785/343
f 645/785/343 534/306/390 642/305/342
f 637/309/12 627/778/337 639/943/386
f 639/943/386 624/467/111 638/466/10
f 626/256/83 617/774/333 614/257/84
f 629/780/336 615/84/29 617/774/333
f 458/275/12 523/923/383 521/335/12
f 459/904/383 522/42/19 523/923/383
f 654/374/350 469/905/384 657/794/354
f 657/794/354 467/225/387 655/224/353
f 648/277/347 601/772/327 652/791/349
f 652/791/349 597/190/67 649/326/91
f 581/443/23 598/769/326 584/760/322
f 584/760/322 595/320/88 582/112/41
f 574/458/314 174/950/381 577/951/317
f 577/759/317 172/94/34 575/245/76
f 655/224/353 49/797/358 659/796/355
f 659/796/355 47/12/357 656/11/356
f 50/90/32 643/782/338 52/798/359
f 52/798/359 640/344/96 51/66/360
f 569/356/312 171/891/378 169/87/380
f 572/952/313 170/362/379 171/889/378
f 596/442/108 313/953/215 600/954/329
f 313/617/215 597/190/67 600/773/329
f 44/302/1 53/389/1 48/223/1
f 53/389/116 56/505/120 57/502/117
f 58/504/119 57/502/117 56/505/120
f 55/325/121 59/503/118 57/502/117
f 60/4/2 63/839/124 64/507/122
f 61/368/9 65/510/125 64/507/122
f 62/91/33 66/508/123 64/507/122
f 73/448/126 76/514/130 77/511/127
f 78/513/129 77/511/127 76/514/130
f 75/15/131 79/512/128 77/511/127
f 80/415/21 83/518/134 84/516/132
f 81/132/9 85/519/135 84/516/132
f 82/118/45 86/803/133 84/516/132
f 141/272/136 144/520/140 145/520/137
f 146/522/139 145/522/137 144/522/140
f 143/38/17 147/827/138 145/523/137
f 148/37/16 151/832/144 152/524/141
f 153/526/143 152/526/141 151/527/144
f 150/270/145 154/525/142 152/528/141
f 155/49/146 158/530/150 159/530/147
f 160/532/149 159/532/147 158/532/150
f 157/464/78 161/531/148 159/533/147
f 162/39/18 165/833/154 166/534/151
f 167/536/153 166/536/151 165/537/154
f 164/47/155 168/535/152 166/538/151
f 178/540/156 179/540/396 181/541/157
f 180/542/159 179/955/396 178/543/156
f 181/544/157 179/956/396 180/542/159
f 185/545/161 186/957/397 188/546/162
f 187/547/163 186/958/397 185/548/161
f 188/549/162 186/959/397 187/550/163
f 201/253/80 204/825/168 205/551/165
f 206/553/167 205/553/165 204/554/168
f 203/332/169 207/552/166 205/555/165
f 208/445/170 211/557/173 212/557/171
f 213/559/172 212/559/171 211/559/173
f 210/254/81 214/558/148 212/560/171
f 218/561/174 219/561/176 221/562/175
f 216/404/145 220/566/177 219/563/176
f 217/252/16 221/824/175 219/565/176
f 222/487/178 225/567/182 226/567/179
f 227/569/181 226/569/179 225/569/182
f 224/498/17 228/568/180 226/570/179
f 229/146/18 232/829/168 233/571/183
f 234/573/184 233/573/183 232/574/168
f 231/401/169 235/572/166 233/575/183
f 236/402/185 239/577/187 240/577/147
f 241/579/172 240/579/147 239/579/187
f 238/488/78 242/578/186 240/580/147
f 243/463/178 246/581/190 247/581/188
f 248/583/181 247/583/188 246/583/190
f 245/145/17 249/582/189 247/584/188
f 250/144/16 253/828/144 254/585/191
f 255/587/192 254/587/191 253/588/144
f 252/241/193 256/586/142 254/589/191
f 257/490/194 260/591/197 261/591/195
f 262/593/196 261/593/195 260/593/197
f 259/248/78 263/592/148 261/594/195
f 264/361/18 267/831/199 268/595/183
f 269/597/198 268/597/183 267/598/199
f 266/365/200 270/826/166 268/599/183
f 271/494/178 274/601/204 275/601/201
f 276/603/203 275/603/201 274/603/204
f 273/360/17 277/602/202 275/604/201
f 278/246/77 281/830/208 282/605/205
f 283/607/207 282/607/205 281/608/208
f 280/492/209 284/606/206 282/609/205
f 303/400/210 306/852/213 307/611/211
f 304/65/24 308/858/214 307/613/211
f 309/615/212 307/960/211 308/616/214
f 313/617/215 314/961/217 316/618/216
f 311/63/22 315/853/219 314/619/217
f 312/222/218 316/851/216 314/621/217
f 317/333/58 320/898/223 321/623/220
f 322/625/222 321/962/220 320/626/223
f 319/489/224 323/861/221 321/627/220
f 324/452/225 327/873/229 328/629/226
f 329/631/228 328/963/226 327/632/229
f 326/334/92 330/862/227 328/633/226
f 331/405/74 334/902/233 335/635/230
f 336/637/232 335/964/230 334/638/233
f 333/235/234 337/863/231 335/639/230
f 338/234/235 341/886/239 342/641/236
f 343/643/238 342/965/236 341/644/239
f 340/406/87 344/864/237 342/645/236
f 345/232/235 348/870/239 349/647/240
f 350/649/238 349/966/240 348/650/239
f 347/243/75 351/865/237 349/651/240
f 352/242/74 355/894/233 356/653/241
f 357/655/232 356/967/241 355/656/233
f 354/457/234 358/866/231 356/657/241
f 362/659/242 363/968/244 365/660/243
f 360/367/20 364/868/246 363/661/244
f 361/230/245 365/867/243 363/663/244
f 366/366/97 369/897/248 370/665/247
f 371/667/222 370/969/247 369/668/248
f 368/231/224 372/869/221 370/669/247
f 373/453/235 376/874/239 377/671/249
f 378/673/250 377/970/249 376/674/239
f 375/271/87 379/871/237 377/675/249
f 380/496/114 383/903/233 384/677/230
f 385/679/232 384/971/230 383/680/233
f 382/454/234 386/872/231 384/681/230
f 387/249/251 390/890/255 391/683/252
f 392/685/254 391/972/252 390/686/255
f 389/450/257 393/875/253 391/687/252
f 394/449/258 397/878/262 398/689/259
f 399/691/261 398/973/259 397/692/262
f 396/88/30 400/974/260 398/693/259
f 401/451/263 404/879/267 405/695/264
f 406/697/266 405/975/264 404/698/267
f 403/493/112 407/876/265 405/699/264
f 408/501/115 411/895/271 412/701/268
f 413/703/270 412/976/268 411/704/271
f 410/455/272 414/877/269 412/705/268
f 415/238/273 418/888/277 419/707/274
f 416/200/276 420/900/278 419/709/274
f 421/711/275 419/977/274 420/712/278
f 425/713/280 426/978/282 428/714/281
f 423/48/20 427/881/284 426/715/282
f 424/236/283 428/880/281 426/717/282
f 429/159/58 432/893/288 433/719/285
f 434/721/287 433/979/285 432/722/288
f 431/239/289 435/882/286 433/723/285
f 436/353/58 439/896/290 440/725/220
f 441/727/222 440/980/220 439/728/290
f 438/240/291 442/883/221 440/729/220
f 443/233/225 446/885/229 447/731/292
f 448/733/242 447/981/292 446/734/229
f 445/354/20 449/884/227 447/735/292
f 453/737/293 454/982/295 456/738/294
f 451/201/69 455/983/297 454/739/295
f 452/237/296 456/887/294 454/741/295
f 463/743/298 464/745/300 466/744/299
f 461/383/100 465/984/302 464/745/300
f 462/413/301 466/842/299 464/745/300
f 527/407/303 530/945/307 531/747/304
f 528/342/306 532/751/308 531/747/304
f 533/750/305 531/747/304 532/751/308
f 570/752/309 571/752/311 573/752/310
f 568/426/101 572/952/313 571/753/311
f 569/459/312 573/754/310 571/754/311
f 574/458/314 577/951/317 578/756/315
f 575/245/76 579/758/318 578/758/315
f 580/757/316 578/757/315 579/757/318
f 581/443/23 584/760/322 585/760/319
f 586/762/321 585/762/319 584/762/322
f 583/339/94 587/859/320 585/763/319
f 591/764/298 592/985/300 594/765/323
f 589/485/100 593/986/325 592/766/300
f 590/430/324 594/855/323 592/767/300
f 598/769/326 599/987/328 601/770/327
f 596/442/108 600/954/329 599/771/328
f 597/190/67 601/772/327 599/772/328
f 614/257/84 617/774/333 618/774/330
f 619/776/332 618/776/330 617/776/333
f 616/438/106 620/846/331 618/777/330
f 624/467/111 627/778/337 628/778/334
f 629/780/336 628/780/334 627/780/337
f 626/256/83 630/988/335 628/781/334
f 643/782/338 644/784/341 646/783/339
f 641/403/340 645/785/343 644/784/341
f 642/305/342 646/947/339 644/784/341
f 650/786/344 651/989/348 653/787/345
f 648/277/347 652/791/349 651/788/348
f 649/326/91 653/841/345 651/790/348
f 654/374/350 657/794/354 658/792/351
f 655/224/353 659/796/355 658/792/351
f 660/795/352 658/792/351 659/796/355
f 47/12/357 49/797/358 59/503/118
f 49/797/358 48/223/398 53/389/116
f 60/4/2 66/508/123 52/798/359
f 52/798/359 66/508/123 62/91/33
f 54/444/109 56/505/120 299/799/361
f 56/505/120 53/389/116 297/34/13
f 301/446/362 73/448/126 79/512/128
f 302/800/363 79/512/128 75/15/131
f 74/128/46 76/514/130 69/801/365
f 76/514/130 73/448/126 67/447/5
f 82/118/45 70/117/40 72/802/366
f 86/803/133 72/802/366 71/58/367
f 138/40/9 140/805/368 137/804/368
f 140/805/368 139/382/6 135/68/26
f 132/124/9 134/807/368 131/806/368
f 134/807/368 133/390/6 129/29/6
f 126/435/9 128/809/368 125/808/368
f 128/809/368 127/386/6 123/32/6
f 120/79/9 122/811/368 119/810/368
f 122/811/368 121/392/6 117/391/6
f 114/56/1 116/813/369 113/812/369
f 116/813/369 115/393/9 111/44/9
f 108/53/10 110/815/369 107/814/369
f 110/815/369 109/110/9 105/60/9
f 102/1/1 104/817/369 101/816/369
f 104/817/369 103/108/9 99/107/9
f 96/412/27 98/819/369 95/818/369
f 98/819/369 97/105/9 93/104/9
f 115/393/9 116/813/369 107/814/369
f 116/813/369 114/56/1 106/54/10
f 87/46/370 89/820/371 113/812/369
f 89/820/371 88/21/11 112/20/10
f 109/110/9 110/815/369 101/816/369
f 110/815/369 108/53/10 100/395/10
f 103/108/9 104/817/369 95/818/369
f 104/817/369 102/1/1 94/396/10
f 97/105/9 98/819/369 287/821/369
f 98/819/369 96/77/27 285/83/28
f 121/392/6 122/811/368 290/822/368
f 122/811/368 120/52/9 288/51/9
f 127/386/6 128/809/368 119/810/368
f 128/809/368 126/369/9 118/80/9
f 133/390/6 134/807/368 125/808/368
f 134/807/368 132/377/9 124/376/9
f 139/382/6 140/805/368 131/806/368
f 140/805/368 138/375/9 130/125/9
f 90/371/26 92/823/368 137/804/368
f 92/823/368 91/18/9 136/17/9
f 203/332/169 208/445/170 214/558/148
f 207/552/166 214/558/148 210/254/81
f 215/258/85 221/562/175 213/559/172
f 221/824/175 217/252/16 210/254/81
f 216/404/145 222/487/178 228/568/180
f 220/566/177 228/568/180 224/498/17
f 202/143/50 204/554/168 227/569/181
f 204/825/168 201/253/80 224/498/17
f 245/145/17 250/144/16 256/586/142
f 249/582/189 256/586/142 252/241/193
f 259/248/78 264/247/18 270/826/166
f 263/592/148 270/826/166 266/365/200
f 143/38/17 148/37/16 154/525/142
f 147/827/138 154/525/142 150/270/145
f 175/499/158 181/541/157 309/615/212
f 181/544/157 177/220/160 303/400/210
f 176/420/7 182/150/47 188/549/162
f 180/542/159 188/549/162 184/221/164
f 273/360/17 278/246/77 284/606/206
f 277/602/202 284/606/206 280/492/209
f 157/464/78 162/39/18 168/535/152
f 161/531/148 168/535/152 164/47/155
f 231/401/169 236/402/185 242/578/186
f 235/572/166 242/578/186 238/488/78
f 251/341/79 253/588/144 241/579/172
f 253/828/144 250/144/16 238/488/78
f 230/168/44 232/574/168 248/583/181
f 232/829/168 229/146/18 245/145/17
f 279/178/63 281/608/208 262/593/196
f 281/830/208 278/246/77 259/248/78
f 265/423/55 267/598/199 276/603/203
f 267/831/199 264/361/18 273/360/17
f 149/211/72 151/527/144 160/532/149
f 151/832/144 148/37/16 157/464/78
f 163/473/110 165/537/154 146/522/139
f 165/833/154 162/39/18 143/38/17
f 198/151/53 200/990/374 197/834/372
f 197/835/372 200/991/374 199/184/65
f 192/188/9 194/837/373 191/836/373
f 194/837/373 193/429/4 189/140/4
f 70/102/40 527/407/303 533/750/305
f 72/802/366 533/750/305 529/379/99
f 60/4/2 193/6/4 194/838/373
f 63/509/124 194/992/373 192/227/9
f 82/118/45 85/519/135 191/840/373
f 85/519/135 81/132/9 190/131/48
f 183/189/66 185/548/161 653/841/345
f 185/545/161 182/130/47 647/410/346
f 460/229/73 466/842/299 69/801/365
f 466/842/299 462/413/301 68/129/8
f 74/214/46 196/216/54 197/843/372
f 78/515/129 197/993/372 195/440/64
f 55/325/121 58/506/119 200/844/374
f 58/504/119 54/444/109 199/428/65
f 291/174/375 293/899/382 620/846/331
f 620/847/331 293/901/382 292/199/376
f 295/432/102 624/471/111 630/848/335
f 296/850/377 630/988/335 626/256/83
f 61/368/9 286/208/9 287/821/369
f 65/510/125 287/821/369 285/83/28
f 289/416/26 290/822/368 83/518/134
f 290/822/368 288/133/9 81/132/9
f 298/372/98 299/799/361 89/820/371
f 299/799/361 297/34/13 88/21/11
f 301/121/362 302/800/363 92/823/368
f 302/800/363 300/14/364 91/26/9
f 310/191/68 316/618/216 187/547/163
f 316/851/216 312/222/218 184/221/164
f 312/222/218 315/622/219 306/852/213
f 315/853/219 311/63/22 304/65/24
f 590/430/324 176/10/7 178/854/156
f 594/856/323 178/540/156 175/499/158
f 304/65/24 581/64/23 587/857/320
f 587/859/320 583/339/94 305/338/93
f 324/452/225 330/630/227 323/861/221
f 330/862/227 326/334/92 317/333/58
f 338/234/235 344/642/237 337/863/231
f 344/864/237 340/406/87 331/405/74
f 352/242/74 358/654/231 351/865/237
f 358/866/231 354/457/234 345/232/235
f 359/170/60 365/660/243 357/655/232
f 365/867/243 361/230/245 354/457/234
f 366/366/97 372/666/221 364/868/246
f 372/869/221 368/231/224 361/230/245
f 346/348/38 348/650/239 371/667/222
f 348/870/239 345/232/235 368/231/224
f 380/496/114 386/678/231 379/871/237
f 386/872/231 382/454/234 373/453/235
f 325/328/60 327/632/229 385/679/232
f 327/873/229 324/452/225 382/454/234
f 374/436/105 376/674/239 322/625/222
f 376/874/239 373/453/235 319/489/224
f 389/450/257 394/449/258 400/690/260
f 393/684/253 400/974/260 396/88/30
f 408/501/115 414/702/269 407/876/265
f 414/877/269 410/455/272 401/451/263
f 395/95/35 397/692/262 413/703/270
f 397/878/262 394/449/258 410/455/272
f 402/148/52 404/698/267 392/685/254
f 404/879/267 401/451/263 389/450/257
f 422/439/107 428/714/281 421/711/275
f 428/880/281 424/236/283 415/238/273
f 429/159/58 435/720/286 427/881/284
f 435/882/286 431/239/289 424/236/283
f 443/233/225 449/732/227 442/883/221
f 449/884/227 445/354/20 436/353/58
f 444/495/113 446/734/229 336/637/232
f 446/885/229 443/233/225 333/235/234
f 339/98/38 341/644/239 441/727/222
f 341/886/239 338/234/235 438/240/291
f 450/433/103 456/738/294 434/721/287
f 456/887/294 452/237/296 431/239/289
f 415/238/273 452/237/296 455/742/297
f 418/710/277 455/983/297 451/201/69
f 388/149/256 390/686/255 171/889/378
f 390/890/255 387/249/251 169/87/380
f 395/95/35 172/94/34 174/892/381
f 399/694/261 174/950/381 173/89/31
f 294/255/82 451/201/69 453/740/293
f 296/849/377 453/737/293 450/433/103
f 164/47/155 167/539/153 432/893/288
f 167/536/153 163/470/110 430/434/104
f 353/171/61 355/656/233 255/587/192
f 355/894/233 352/242/74 252/241/193
f 346/348/38 244/347/57 246/583/190
f 350/652/238 246/581/190 243/463/178
f 409/96/36 411/704/271 283/607/207
f 411/895/271 408/501/115 280/492/209
f 402/148/52 272/147/51 274/603/204
f 406/700/266 274/601/204 271/494/178
f 437/99/39 439/728/290 234/573/184
f 439/896/290 436/353/58 231/352/169
f 444/495/113 237/268/59 239/579/187
f 448/736/242 239/577/187 236/402/185
f 257/490/194 360/367/20 362/662/242
f 260/593/197 362/659/242 359/170/60
f 367/349/39 369/668/248 269/597/198
f 369/897/248 366/366/97 266/365/200
f 318/205/71 320/626/223 206/553/167
f 320/898/223 317/333/58 203/332/169
f 325/328/60 209/327/59 211/559/173
f 329/634/228 211/557/173 208/445/170
f 417/173/279 420/712/278 293/899/382
f 420/900/278 416/200/276 292/199/376
f 216/404/145 218/564/174 334/902/233
f 218/561/174 215/258/85 332/269/86
f 381/329/61 383/680/233 153/526/143
f 383/903/233 380/496/114 150/270/145
f 374/436/105 142/204/70 144/522/140
f 378/676/250 144/520/140 141/272/136
f 155/49/146 423/48/20 425/716/280
f 158/532/150 425/713/280 422/439/107
f 222/487/178 340/406/87 343/646/238
f 225/569/182 343/643/238 339/98/38
f 461/383/100 463/743/298 459/904/383
f 463/743/298 460/229/73 457/456/19
f 470/25/12 472/906/386 469/905/384
f 472/906/386 471/273/15 467/225/387
f 476/291/12 478/908/383 475/907/383
f 478/908/383 477/479/49 473/278/19
f 482/282/12 484/910/383 481/909/383
f 484/910/383 483/294/49 479/293/19
f 488/280/12 490/912/383 487/911/383
f 490/912/383 489/346/49 485/345/19
f 494/431/12 496/914/383 493/913/383
f 496/914/383 495/482/49 491/481/19
f 500/92/12 502/916/386 499/915/386
f 502/916/386 501/310/15 497/274/14
f 506/289/12 508/918/386 505/917/386
f 508/918/386 507/297/15 503/350/14
f 512/300/12 514/920/386 511/919/386
f 514/920/386 513/36/15 509/35/14
f 518/314/12 520/922/386 517/921/386
f 520/922/386 519/119/15 515/207/14
f 477/478/49 478/908/383 523/923/383
f 478/908/383 476/474/12 521/335/12
f 471/273/15 472/906/386 499/915/386
f 472/906/386 470/25/12 498/24/12
f 504/296/12 505/917/386 502/916/386
f 505/917/386 503/350/14 501/310/15
f 483/363/49 484/910/383 475/907/383
f 484/910/383 482/282/12 474/292/12
f 489/134/49 490/912/383 481/909/383
f 490/912/383 488/280/12 480/283/12
f 507/297/15 508/918/386 511/919/386
f 508/918/386 506/289/12 510/288/12
f 495/311/49 496/914/383 487/911/383
f 496/914/383 494/195/12 486/281/12
f 513/36/15 514/920/386 517/921/386
f 514/920/386 512/300/12 516/299/12
f 525/380/90 529/379/99 532/751/308
f 526/924/383 532/751/308 528/342/306
f 519/119/15 520/922/386 536/925/388
f 520/922/386 518/314/12 534/306/390
f 540/287/12 542/927/383 539/926/383
f 542/927/383 541/469/19 537/468/19
f 546/477/12 548/929/386 545/928/386
f 548/929/386 547/142/15 543/266/14
f 552/93/12 554/931/383 551/930/383
f 554/931/383 553/251/19 549/351/19
f 558/218/12 560/933/386 557/932/386
f 560/933/386 559/460/56 555/422/14
f 538/409/12 539/926/383 563/934/383
f 539/926/383 537/213/19 561/212/19
f 564/196/12 566/935/386 548/929/386
f 566/935/386 565/462/14 547/142/15
f 569/459/312 574/458/314 580/757/316
f 580/757/316 576/114/43 567/113/42
f 589/485/100 591/764/298 586/762/321
f 591/764/298 588/340/95 583/339/94
f 603/23/12 576/321/43 579/758/318
f 604/936/383 579/758/318 575/245/76
f 605/331/12 607/937/386 570/752/309
f 607/937/386 606/427/27 568/426/101
f 611/315/25 613/939/393 610/938/391
f 613/939/393 612/86/395 608/85/394
f 621/319/12 623/940/383 619/776/332
f 623/940/383 622/264/19 616/438/106
f 550/295/12 551/930/383 633/941/383
f 551/930/383 549/351/19 631/260/6
f 634/217/12 636/942/386 560/933/386
f 636/942/386 635/167/14 559/157/56
f 603/23/12 604/936/383 554/931/383
f 604/936/383 602/419/19 553/251/19
f 556/330/12 557/932/386 607/937/386
f 557/932/386 555/422/14 606/398/27
f 562/298/12 563/934/383 623/940/383
f 563/934/383 561/212/19 622/264/19
f 637/476/12 639/943/386 566/935/386
f 639/943/386 638/425/10 565/262/14
f 632/437/12 633/941/383 542/927/383
f 633/941/383 631/260/6 541/259/19
f 544/358/12 545/928/386 636/942/386
f 545/928/386 543/418/14 635/167/14
f 527/407/303 609/480/392 610/944/391
f 530/945/307 610/944/391 608/483/394
f 640/344/96 646/783/339 613/946/393
f 646/947/339 642/305/342 612/304/395
f 647/410/346 462/413/301 465/746/302
f 650/949/344 465/984/302 461/383/100
f 656/11/356 590/430/324 593/768/325
f 660/793/352 593/986/325 589/485/100
f 525/317/90 526/924/383 493/913/383
f 526/924/383 524/284/12 492/286/12
f 641/403/340 535/120/389 536/925/388
f 645/785/343 536/925/388 534/306/390
f 637/309/12 625/308/89 627/778/337
f 639/943/386 627/778/337 624/467/111
f 626/256/83 629/780/336 617/774/333
f 629/780/336 625/397/89 615/84/29
f 458/275/12 459/904/383 523/923/383
f 459/904/383 457/43/19 522/42/19
f 654/374/350 468/322/385 469/905/384
f 657/794/354 469/905/384 467/225/387
f 648/277/347 595/276/88 601/772/327
f 652/791/349 601/772/327 597/190/67
f 581/443/23 596/442/108 598/769/326
f 584/760/322 598/769/326 595/320/88
f 574/458/314 173/89/31 174/950/381
f 577/759/317 174/892/381 172/94/34
f 655/224/353 48/223/398 49/797/358
f 659/796/355 49/797/358 47/12/357
f 50/90/32 641/403/340 643/782/338
f 52/798/359 643/782/338 640/344/96
f 569/356/312 572/994/313 171/891/378
f 572/952/313 568/426/101 170/362/379
f 596/442/108 311/441/22 313/953/215
f 313/617/215 310/191/68 597/190/67
