# Blender 4.4.1
# www.blender.org
mtllib ajtofelfa.mtl
o OutBoddy
v 2.873727 0.456491 0.519489
v 2.873727 0.456491 -0.510019
v 3.182158 0.456491 -0.510019
v 3.182158 0.456491 0.519489
v 2.873727 12.514351 0.519489
v 2.873727 12.514351 -0.510019
v 3.182158 12.514351 -0.510019
v 3.182158 12.514351 0.519489
v 2.873727 12.813814 0.519489
v 2.873727 12.813814 -0.510019
v 3.182158 12.813814 -0.510019
v 3.182158 12.813814 0.519489
v -3.685074 12.514351 0.519489
v -3.685074 12.514351 -0.510019
v -3.685074 12.813814 0.519489
v -3.685074 12.813814 -0.510019
v -3.997806 12.514351 0.519489
v -3.997806 12.514351 -0.510019
v -3.997806 12.813814 0.519489
v -3.997806 12.813814 -0.510019
v -3.685074 0.394094 0.519489
v -3.685074 0.394094 -0.510019
v -3.997806 0.394094 0.519489
v -3.997806 0.394094 -0.510019
v 2.873727 6.485421 0.519489
v 2.873727 6.485422 -0.510019
v 3.182158 6.485422 -0.510019
v 3.182158 6.485422 0.519489
v 2.873727 6.870141 0.519489
v 2.873727 6.870142 -0.510019
v 3.182158 6.870142 -0.510019
v 3.182158 6.870142 0.519489
v 2.873727 12.514351 -0.259551
v 2.873727 0.456491 -0.259551
v 3.182158 12.514351 -0.259551
v 3.182158 0.456491 -0.259551
v 2.873727 12.813814 -0.259551
v 3.182158 12.813814 -0.259551
v -3.685074 12.514351 -0.259551
v -3.685074 12.813814 -0.259551
v -3.997806 12.514351 -0.259551
v -3.997806 12.813814 -0.259551
v -3.685074 0.394094 -0.259551
v -3.997806 0.394094 -0.259551
v 3.182158 6.485422 -0.259551
v 2.873727 6.485422 -0.259551
v 2.873727 6.870142 -0.259551
v 3.182158 6.870142 -0.259551
v 2.873727 0.456491 0.129969
v 3.182158 12.514351 0.129969
v 3.182158 12.813814 0.129969
v 2.873727 6.485422 0.129969
v 2.873727 6.870142 0.129969
v 2.873727 12.514351 0.129969
v 3.182158 0.456491 0.129969
v 2.873727 12.813814 0.129969
v -3.685074 12.514351 0.129969
v -3.685074 12.813814 0.129969
v -3.997806 12.514351 0.129969
v -3.997806 12.813814 0.129969
v -3.685074 0.394094 0.129969
v -3.997806 0.394094 0.129969
v 3.182158 6.485422 0.129969
v 3.182158 6.870142 0.129969
v 2.900865 12.514351 -0.229433
v 3.182158 0.456491 -0.229433
v 2.873727 12.813814 -0.229433
v -3.685074 12.514351 -0.229433
v -3.685074 12.813814 -0.229433
v -3.997806 12.514351 -0.229433
v -3.997806 12.813814 -0.229433
v -3.685074 0.394094 -0.229433
v -3.997806 0.394094 -0.229433
v 3.182158 6.485422 -0.229433
v 3.182158 6.870142 -0.229433
v 2.900865 0.456491 -0.229434
v 3.182158 12.514351 -0.229434
v 3.182158 12.813814 -0.229434
v 2.990944 6.485422 -0.229434
v 2.990944 6.870142 -0.229434
v 2.900865 0.456491 -0.020980
v 3.182158 12.514351 -0.020980
v 3.182158 12.813814 -0.020980
v 2.990944 6.485422 -0.020980
v 2.990944 6.870142 -0.020980
v 2.900865 12.514351 -0.020980
v 3.182158 0.456491 -0.020980
v 2.873727 12.813814 -0.020980
v -3.685074 12.514351 -0.020980
v -3.685074 12.813814 -0.020980
v -3.997806 12.514351 -0.020980
v -3.997806 12.813814 -0.020980
v -3.685074 0.394094 -0.020980
v -3.997806 0.394094 -0.020980
v 3.182158 6.485422 -0.020980
v 3.182158 6.870142 -0.020980
v 2.873727 6.988197 0.519489
v 2.873727 6.988198 -0.510019
v 3.182158 6.988198 -0.510019
v 3.182158 6.988198 0.519489
v 3.182158 6.988198 -0.259551
v 2.873727 6.988198 -0.259551
v 2.873727 6.988198 0.129969
v 3.182158 6.988198 0.129969
v 3.182158 6.988198 -0.229433
v 2.900865 6.988198 -0.229434
v 2.900865 6.988198 -0.020980
v 3.182158 6.988198 -0.020980
v 2.873727 6.369602 -0.510019
v 3.182158 6.369602 -0.510019
v 3.182158 6.369602 0.519489
v 2.873727 6.369602 0.519489
v 3.182158 6.369602 -0.259551
v 2.873727 6.369602 -0.259551
v 2.873727 6.369602 0.129969
v 3.182158 6.369602 0.129969
v 3.182158 6.369602 -0.229433
v 2.900865 6.369602 -0.229434
v 2.900865 6.369602 -0.020980
v 3.182158 6.369602 -0.020980
vn -0.9197 -0.0247 0.3919
vn -0.9197 -0.0247 -0.3919
vn 0.9197 -0.0247 -0.3919
vn 0.9197 -0.0247 0.3919
vn -0.6160 -0.0165 0.7875
vn -0.6160 -0.0165 -0.7875
vn 0.9200 -0.0000 -0.3920
vn 0.9200 -0.0000 0.3920
vn -0.0000 0.0628 0.9980
vn -0.0000 0.0628 -0.9980
vn 0.9197 0.0247 -0.3919
vn 0.9197 0.0247 0.3919
vn 0.6160 -0.0165 0.7876
vn 0.6160 -0.0165 -0.7876
vn -0.9200 -0.0000 0.3920
vn -0.9200 -0.0000 -0.3920
vn -0.9197 0.0247 0.3919
vn -0.9197 0.0247 -0.3919
vn -0.9643 -0.0492 0.2602
vn -0.9652 -0.0232 0.2605
vn 1.0000 -0.0000 -0.0000
vn 0.9996 -0.0268 -0.0000
vn -0.0000 1.0000 -0.0000
vn 0.9996 0.0268 -0.0000
vn -1.0000 -0.0000 -0.0000
vn -0.9996 0.0268 -0.0000
vn -0.9996 -0.0268 -0.0000
vn -0.9517 0.0021 0.3071
vn -0.9516 -0.0021 0.3072
vn -0.9960 -0.0243 -0.0859
vn -0.9873 0.0033 -0.1589
vn -0.9873 -0.0033 -0.1590
vn -0.9958 -0.0313 -0.0859
vn -0.9352 0.0234 0.3534
vn -0.9352 -0.0234 0.3533
vn -0.9698 0.0225 -0.2428
vn -0.9698 -0.0225 -0.2427
vn -0.9655 -0.0000 0.2605
vn -0.9963 -0.0000 -0.0859
vn -0.9248 -0.0420 0.3781
vn -0.9945 -0.0296 -0.1003
vn -0.9255 0.0421 0.3764
vn -0.9945 0.0296 -0.1001
vt 0.819424 0.183306
vt 0.856509 0.213858
vt 0.819424 0.213858
vt 0.440442 1.000000
vt 0.403357 0.957043
vt 0.440442 0.957043
vt 0.823109 0.061102
vt 0.860193 0.076378
vt 0.823109 0.076378
vt 0.593232 0.042957
vt 0.556147 0.000000
vt 0.593232 0.000000
vt 0.857277 0.122204
vt 0.998794 0.152755
vt 0.857277 0.152755
vt 0.711855 0.122204
vt 0.708170 0.091653
vt 0.711855 0.091653
vt 0.201294 0.000000
vt 0.100647 0.042957
vt 0.100647 0.000000
vt 0.551696 0.957043
vt 0.555380 0.043556
vt 0.555380 0.957043
vt 0.704486 0.000000
vt 0.708170 0.042957
vt 0.704486 0.042957
vt 0.555380 1.000000
vt 0.551696 1.000000
vt 0.708170 0.956444
vt 0.704486 1.000000
vt 0.704486 0.956444
vt 0.201294 0.042957
vt 0.100648 0.956444
vt 0.402589 0.000000
vt 0.352266 0.913487
vt 0.352265 0.000000
vt 0.711855 0.061102
vt 0.708170 0.045827
vt 0.711855 0.045827
vt 0.551696 0.043556
vt 0.555380 0.000000
vt 0.201295 0.956444
vt 0.100648 1.000000
vt 0.711855 0.000000
vt 0.860961 0.030551
vt 0.711855 0.030551
vt 1.000000 0.244409
vt 0.856509 0.229133
vt 1.000000 0.229133
vt 0.555380 0.956444
vt 0.402589 0.000000
vt 0.551696 0.000000
vt 0.857277 0.183306
vt 0.708170 0.168031
vt 0.857277 0.168031
vt 0.667401 0.042957
vt 0.630316 0.000000
vt 0.667401 0.000000
vt 0.748939 0.061102
vt 0.786024 0.076378
vt 0.748939 0.076378
vt 0.514611 1.000000
vt 0.477526 0.957043
vt 0.514611 0.957043
vt 0.745255 0.183306
vt 0.782340 0.213858
vt 0.745255 0.213858
vt 0.726713 0.183306
vt 0.726713 0.213858
vt 0.533153 1.000000
vt 0.533153 0.957043
vt 0.730397 0.061102
vt 0.730397 0.076378
vt 0.685943 0.042957
vt 0.685943 0.000000
vt 0.730397 0.091653
vt 0.748939 0.122204
vt 0.730397 0.122204
vt 0.726713 0.221495
vt 0.745255 0.221495
vt 0.782340 0.221495
vt 0.748939 0.091653
vt 0.786024 0.122204
vt 0.708170 0.122204
vt 0.857277 0.122204
vt 1.000000 0.213858
vt 0.856509 0.183306
vt 1.000000 0.183306
vt 0.860961 0.038189
vt 0.711855 0.038189
vt 0.075486 1.000000
vt 0.075486 0.956444
vt 0.708170 0.000000
vt 0.301942 0.000000
vt 0.201295 0.913487
vt 0.201295 0.000000
vt 0.075485 0.042957
vt 0.075485 0.000000
vt 0.708170 0.084015
vt 0.711855 0.084015
vt 0.857277 0.160393
vt 0.998794 0.160393
vt 0.823109 0.091653
vt 0.860193 0.122204
vt 0.823109 0.122204
vt 0.856509 0.221495
vt 0.819424 0.221495
vt 0.819424 0.229133
vt 0.856509 0.244409
vt 0.819425 0.244409
vt 0.998794 0.183306
vt 0.857277 0.183306
vt 0.711855 0.076378
vt 0.708170 0.061102
vt 0.050324 0.000000
vt 0.000000 0.042957
vt 0.000000 0.000000
vt 0.050324 0.042957
vt 0.000001 0.956444
vt 0.050324 0.956444
vt 0.000001 1.000000
vt 0.860961 0.061102
vt 0.745255 0.229133
vt 0.782340 0.244409
vt 0.745255 0.244409
vt 0.726713 0.229133
vt 0.726713 0.244409
vt 0.748939 0.080197
vt 0.730397 0.080197
vt 0.786024 0.080197
vt 0.708170 0.164212
vt 0.857277 0.164212
vt 0.856509 0.225314
vt 1.000000 0.225314
vt 0.708170 0.042008
vt 0.711855 0.042008
vt 0.339685 0.913487
vt 0.339684 0.000000
vt 0.860193 0.080197
vt 0.823109 0.080197
vt 0.823109 0.084015
vt 0.860193 0.091653
vt 0.327104 0.913487
vt 0.301942 0.913487
vt 0.708170 0.030551
vt 1.000000 0.221495
vt 0.856509 0.213858
vt 0.708170 0.152755
vt 0.748939 0.084015
vt 0.786024 0.091653
vt 0.730397 0.084015
vt 0.856509 0.225314
vt 0.819424 0.225314
vt 0.998794 0.164212
vt 0.708170 0.080197
vt 0.711855 0.080197
vt 0.062904 0.042957
vt 0.062904 0.000000
vt 0.062905 0.956444
vt 0.062905 1.000000
vt 0.860961 0.042008
vt 0.782340 0.225314
vt 0.745255 0.225314
vt 0.726713 0.225314
vt 0.782340 0.229133
vt 0.860961 0.045827
vt 0.050324 1.000000
vt 0.708170 0.076378
vt 0.998794 0.168031
vt 0.856509 0.229133
vt 0.860193 0.084015
vt 0.327104 0.000000
vt 0.708170 0.038189
vt 0.856509 0.221495
vt 0.708170 0.160393
vt 0.786024 0.084015
vt 0.708170 0.225314
vt 0.708170 0.229133
vt 0.708170 0.221495
vt 0.708170 0.244409
vt 0.708170 0.213858
vt 0.708170 0.183306
vt 0.630316 0.042957
vt 0.786024 0.061102
vt 0.477526 1.000000
vt 0.782340 0.183306
vt 0.856509 0.183306
vt 0.403357 1.000000
vt 0.860193 0.061102
vt 0.556147 0.042957
vt 0.998794 0.122204
vt 0.708170 0.122204
vt 0.708170 0.000000
vt 0.708170 1.000000
vt 0.402589 0.913487
vt 0.201295 1.000000
vt 0.860961 0.000000
vt 0.856509 0.244409
vt 0.402589 0.043556
vt 0.708170 0.183306
s 1
usemtl text
f 109/1/16 34/2/20 114/3/38
f 110/4/7 2/5/2 109/6/16
f 111/7/8 55/8/22 116/9/21
f 112/10/15 4/11/4 111/12/8
f 2/13/2 36/14/22 34/15/20
f 7/16/7 38/17/24 35/18/21
f 11/19/11 37/20/23 38/21/24
f 6/22/6 16/23/10 10/24/10
f 8/25/8 9/26/9 5/27/5
f 6/22/6 11/28/11 7/29/7
f 15/30/9 17/31/15 13/32/13
f 10/33/10 40/34/23 37/20/23
f 5/35/5 57/36/22 54/37/33
f 9/26/9 13/32/13 5/27/5
f 17/38/15 60/39/26 59/40/25
f 14/41/14 20/42/18 16/23/10
f 16/43/10 42/44/26 40/34/23
f 18/45/16 44/46/27 41/47/25
f 21/48/4 62/49/27 61/50/22
f 17/31/15 21/51/4 13/32/13
f 14/41/14 24/52/2 18/53/16
f 13/54/13 61/55/22 57/56/22
f 29/57/15 28/58/8 32/59/8
f 32/60/8 63/61/21 64/62/21
f 31/63/7 26/64/16 30/65/16
f 30/66/16 46/67/28 47/68/29
f 98/69/16 47/68/29 102/70/38
f 99/71/7 30/65/16 98/72/16
f 100/73/8 64/62/21 104/74/21
f 97/75/15 32/59/8 100/76/8
f 101/77/21 31/78/7 99/79/7
f 106/80/40 47/68/29 80/81/35
f 47/68/29 79/82/34 80/81/35
f 48/83/21 27/84/7 31/78/7
f 39/15/22 22/85/3 14/86/14
f 43/87/22 24/88/2 22/89/3
f 41/47/25 73/90/27 70/91/25
f 40/34/23 71/92/26 69/93/23
f 41/47/25 20/94/18 18/45/16
f 33/95/19 14/96/14 6/97/6
f 37/20/23 69/93/23 67/98/23
f 38/21/24 67/98/23 78/99/24
f 35/18/21 78/100/24 77/101/21
f 76/102/19 36/14/22 66/103/22
f 113/104/21 3/105/3 110/106/7
f 114/3/38 76/107/19 118/108/42
f 115/109/39 1/110/1 112/111/15
f 49/56/30 4/112/4 1/113/1
f 50/114/21 12/115/12 8/38/8
f 51/116/24 9/117/9 12/118/12
f 56/119/23 15/120/9 9/117/9
f 58/121/23 19/122/17 15/120/9
f 59/40/25 23/123/1 17/38/15
f 53/124/32 25/125/15 29/126/15
f 103/127/39 29/126/15 97/128/15
f 104/74/21 96/129/21 108/130/21
f 64/62/21 95/131/21 96/129/21
f 57/56/22 93/132/22 89/133/22
f 61/50/22 94/134/27 93/135/22
f 59/40/25 92/136/26 91/137/25
f 54/37/33 89/138/22 86/139/30
f 116/9/21 87/140/22 120/141/21
f 117/142/21 36/143/22 113/104/21
f 33/95/19 68/144/22 39/145/22
f 70/91/25 42/146/26 41/47/25
f 72/147/22 44/148/27 43/87/22
f 68/102/22 43/149/22 39/15/22
f 75/150/21 45/151/21 48/83/21
f 105/152/21 48/83/21 101/77/21
f 118/108/42 81/153/33 119/154/43
f 81/133/33 66/103/22 87/155/22
f 77/101/21 83/156/24 82/157/21
f 78/99/24 88/158/23 83/159/24
f 67/98/23 90/160/23 88/158/23
f 69/93/23 92/161/26 90/160/23
f 70/91/25 94/162/27 91/137/25
f 80/81/35 84/163/36 85/164/37
f 106/80/40 85/164/37 107/165/41
f 107/165/41 53/124/32 103/127/39
f 85/164/37 52/166/31 53/124/32
f 91/137/25 62/167/27 59/40/25
f 90/160/23 60/168/26 58/121/23
f 88/158/23 58/121/23 56/119/23
f 83/159/24 56/119/23 51/116/24
f 82/157/21 51/169/24 50/114/21
f 81/133/33 55/170/22 49/56/30
f 115/109/39 81/153/33 49/171/30
f 120/141/21 66/172/22 117/142/21
f 86/139/30 68/144/22 65/173/20
f 91/137/25 71/174/26 70/91/25
f 93/135/22 73/175/27 72/147/22
f 89/133/22 72/176/22 68/102/22
f 96/129/21 74/177/21 75/150/21
f 108/130/21 75/150/21 105/152/21
f 82/157/21 105/152/21 77/101/21
f 86/178/30 103/127/39 54/179/33
f 65/180/20 107/165/41 86/178/30
f 77/101/21 101/77/21 35/18/21
f 50/114/21 108/130/21 82/157/21
f 54/179/33 97/128/15 5/181/5
f 33/182/19 106/80/40 65/180/20
f 35/18/21 99/79/7 7/16/7
f 5/27/5 100/76/8 8/25/8
f 8/38/8 104/74/21 50/114/21
f 7/29/7 98/72/16 6/22/6
f 6/183/6 102/70/38 33/182/19
f 95/131/21 117/142/21 74/177/21
f 52/166/31 119/154/43 115/109/39
f 79/82/34 119/154/43 84/163/36
f 74/177/21 113/104/21 45/151/21
f 63/61/21 120/141/21 95/131/21
f 52/166/31 112/111/15 25/125/15
f 46/67/28 118/108/42 79/82/34
f 45/151/21 110/106/7 27/84/7
f 25/184/15 111/12/8 28/58/8
f 28/185/8 116/9/21 63/61/21
f 27/186/7 109/6/16 26/64/16
f 26/187/16 114/3/38 46/67/28
f 80/81/35 79/82/34 84/163/36
f 109/1/16 2/188/2 34/2/20
f 110/4/7 3/189/3 2/5/2
f 111/7/8 4/190/4 55/8/22
f 112/10/15 1/191/1 4/11/4
f 2/13/2 3/192/3 36/14/22
f 7/16/7 11/193/11 38/17/24
f 11/19/11 10/33/10 37/20/23
f 6/22/6 14/41/14 16/23/10
f 8/25/8 12/194/12 9/26/9
f 6/22/6 10/24/10 11/28/11
f 15/30/9 19/195/17 17/31/15
f 10/33/10 16/43/10 40/34/23
f 5/35/5 13/196/13 57/36/22
f 9/26/9 15/30/9 13/32/13
f 17/38/15 19/115/17 60/39/26
f 14/41/14 18/53/16 20/42/18
f 16/43/10 20/197/18 42/44/26
f 18/45/16 24/198/2 44/46/27
f 21/48/4 23/199/1 62/49/27
f 17/31/15 23/28/1 21/51/4
f 14/41/14 22/200/3 24/52/2
f 13/54/13 21/201/4 61/55/22
f 29/57/15 25/184/15 28/58/8
f 32/60/8 28/185/8 63/61/21
f 31/63/7 27/186/7 26/64/16
f 30/66/16 26/187/16 46/67/28
f 98/69/16 30/66/16 47/68/29
f 99/71/7 31/63/7 30/65/16
f 100/73/8 32/60/8 64/62/21
f 97/75/15 29/57/15 32/59/8
f 101/77/21 48/83/21 31/78/7
f 106/80/40 102/70/38 47/68/29
f 47/68/29 46/67/28 79/82/34
f 48/83/21 45/151/21 27/84/7
f 39/15/22 43/149/22 22/85/3
f 43/87/22 44/148/27 24/88/2
f 41/47/25 44/46/27 73/90/27
f 40/34/23 42/44/26 71/92/26
f 41/47/25 42/146/26 20/94/18
f 33/95/19 39/145/22 14/96/14
f 37/20/23 40/34/23 69/93/23
f 38/21/24 37/20/23 67/98/23
f 35/18/21 38/17/24 78/100/24
f 76/102/19 34/15/20 36/14/22
f 113/104/21 36/143/22 3/105/3
f 114/3/38 34/2/20 76/107/19
f 115/109/39 49/171/30 1/110/1
f 49/56/30 55/170/22 4/112/4
f 50/114/21 51/169/24 12/115/12
f 51/116/24 56/119/23 9/117/9
f 56/119/23 58/121/23 15/120/9
f 58/121/23 60/168/26 19/122/17
f 59/40/25 62/167/27 23/123/1
f 53/124/32 52/166/31 25/125/15
f 103/127/39 53/124/32 29/126/15
f 104/74/21 64/62/21 96/129/21
f 64/62/21 63/61/21 95/131/21
f 57/56/22 61/55/22 93/132/22
f 61/50/22 62/49/27 94/134/27
f 59/40/25 60/39/26 92/136/26
f 54/37/33 57/36/22 89/138/22
f 116/9/21 55/8/22 87/140/22
f 117/142/21 66/172/22 36/143/22
f 33/95/19 65/173/20 68/144/22
f 70/91/25 71/174/26 42/146/26
f 72/147/22 73/175/27 44/148/27
f 68/102/22 72/176/22 43/149/22
f 75/150/21 74/177/21 45/151/21
f 105/152/21 75/150/21 48/83/21
f 118/108/42 76/107/19 81/153/33
f 81/133/33 76/102/19 66/103/22
f 77/101/21 78/100/24 83/156/24
f 78/99/24 67/98/23 88/158/23
f 67/98/23 69/93/23 90/160/23
f 69/93/23 71/92/26 92/161/26
f 70/91/25 73/90/27 94/162/27
f 106/80/40 80/81/35 85/164/37
f 107/165/41 85/164/37 53/124/32
f 85/164/37 84/163/36 52/166/31
f 91/137/25 94/162/27 62/167/27
f 90/160/23 92/161/26 60/168/26
f 88/158/23 90/160/23 58/121/23
f 83/159/24 88/158/23 56/119/23
f 82/157/21 83/156/24 51/169/24
f 81/133/33 87/155/22 55/170/22
f 115/109/39 119/154/43 81/153/33
f 120/141/21 87/140/22 66/172/22
f 86/139/30 89/138/22 68/144/22
f 91/137/25 92/136/26 71/174/26
f 93/135/22 94/134/27 73/175/27
f 89/133/22 93/132/22 72/176/22
f 96/129/21 95/131/21 74/177/21
f 108/130/21 96/129/21 75/150/21
f 82/157/21 108/130/21 105/152/21
f 86/178/30 107/165/41 103/127/39
f 65/180/20 106/80/40 107/165/41
f 77/101/21 105/152/21 101/77/21
f 50/114/21 104/74/21 108/130/21
f 54/179/33 103/127/39 97/128/15
f 33/182/19 102/70/38 106/80/40
f 35/18/21 101/77/21 99/79/7
f 5/27/5 97/75/15 100/76/8
f 8/38/8 100/73/8 104/74/21
f 7/29/7 99/71/7 98/72/16
f 6/183/6 98/69/16 102/70/38
f 95/131/21 120/141/21 117/142/21
f 52/166/31 84/163/36 119/154/43
f 79/82/34 118/108/42 119/154/43
f 74/177/21 117/142/21 113/104/21
f 63/61/21 116/9/21 120/141/21
f 52/166/31 115/109/39 112/111/15
f 46/67/28 114/3/38 118/108/42
f 45/151/21 113/104/21 110/106/7
f 25/184/15 112/10/15 111/12/8
f 28/185/8 111/7/8 116/9/21
f 27/186/7 110/4/7 109/6/16
f 26/187/16 109/1/16 114/3/38
