# Blender 4.4.1
# www.blender.org
mtllib asztal_lab.mtl
o Cube
v 0.810000 3.610000 -1.040000
v 0.810000 -3.610000 -1.040000
v 0.810000 3.610000 1.040000
v 0.810000 -3.610000 1.040000
v -0.810000 3.610000 -1.040000
v -0.810000 -3.610000 -1.040000
v -0.810000 3.610000 1.040000
v -0.810000 -3.610000 1.040000
v 0.676197 -3.013667 0.671807
v 0.676197 3.013667 0.671807
v -0.676197 3.013667 0.671807
v -0.676197 -3.013667 0.671807
v -0.523234 -3.013667 0.868203
v -0.523234 3.013667 0.868203
v -0.523234 3.013667 -0.868203
v -0.523234 -3.013667 -0.868203
v 0.523234 -3.013667 -0.868203
v 0.523234 3.013667 -0.868203
v 0.523234 3.013667 0.868203
v 0.523234 -3.013667 0.868203
v -0.676197 -3.013667 -0.671807
v -0.676197 3.013667 -0.671807
v 0.676197 3.013667 -0.671807
v 0.676197 -3.013667 -0.671807
vn -0.0000 1.0000 -0.0000
vn -0.0000 -0.0000 1.0000
vn -1.0000 -0.0000 -0.0000
vn -0.0000 -1.0000 -0.0000
vn 1.0000 -0.0000 -0.0000
vn -0.0000 -0.0000 -1.0000
vn -0.9399 -0.0000 0.3416
vn -0.0000 -0.5254 0.8509
vn 0.9399 -0.0000 0.3416
vn -0.0000 0.5254 0.8509
vn -0.5139 -0.0000 -0.8578
vn -0.9012 -0.4334 -0.0000
vn -0.5139 -0.0000 0.8578
vn -0.9012 0.4334 -0.0000
vn 0.5139 -0.0000 0.8578
vn 0.9012 -0.4334 -0.0000
vn 0.5139 -0.0000 -0.8578
vn 0.9012 0.4334 -0.0000
vn 0.9399 -0.0000 -0.3416
vn -0.0000 -0.5254 -0.8509
vn -0.9399 -0.0000 -0.3416
vn -0.0000 0.5254 -0.8509
vt 0.875000 0.500000
vt 0.625000 0.750000
vt 0.625000 0.500000
vt 0.604351 0.770649
vt 0.395649 0.979351
vt 0.395649 0.770649
vt 0.604351 0.020649
vt 0.395649 0.229351
vt 0.395649 0.020649
vt 0.375000 0.500000
vt 0.125000 0.750000
vt 0.125000 0.500000
vt 0.604351 0.520649
vt 0.395649 0.729351
vt 0.395649 0.520649
vt 0.604351 0.270649
vt 0.395649 0.479351
vt 0.395649 0.270649
vt 0.375000 0.750000
vt 0.625000 1.000000
vt 0.375000 1.000000
vt 0.604351 0.979351
vt 0.625000 0.000000
vt 0.375000 0.000000
vt 0.625000 0.250000
vt 0.375000 0.250000
vt 0.604351 0.229351
vt 0.604351 0.729351
vt 0.604351 0.479351
vt 0.875000 0.750000
s 0
usemtl Material
f 5/1/1 3/2/1 1/3/1
f 10/4/2 12/5/2 9/6/2
f 14/7/3 16/8/3 13/9/3
f 2/10/4 8/11/4 6/12/4
f 18/13/5 20/14/5 17/15/5
f 22/16/6 24/17/6 21/18/6
f 3/2/7 9/6/7 4/19/7
f 7/20/8 10/4/8 3/2/8
f 8/21/9 11/22/9 7/20/9
f 4/19/10 12/5/10 8/21/10
f 7/23/11 13/9/11 8/24/11
f 5/25/12 14/7/12 7/23/12
f 6/26/13 15/27/13 5/25/13
f 8/24/14 16/8/14 6/26/14
f 1/3/15 17/15/15 2/10/15
f 3/2/16 18/13/16 1/3/16
f 4/19/17 19/28/17 3/2/17
f 2/10/18 20/14/18 4/19/18
f 5/25/19 21/18/19 6/26/19
f 1/3/20 22/16/20 5/25/20
f 2/10/21 23/29/21 1/3/21
f 6/26/22 24/17/22 2/10/22
f 10/4/2 11/22/2 12/5/2
f 14/7/3 15/27/3 16/8/3
f 18/13/5 19/28/5 20/14/5
f 22/16/6 23/29/6 24/17/6
f 5/1/1 7/30/1 3/2/1
f 2/10/4 4/19/4 8/11/4
f 3/2/7 10/4/7 9/6/7
f 7/20/8 11/22/8 10/4/8
f 8/21/9 12/5/9 11/22/9
f 4/19/10 9/6/10 12/5/10
f 7/23/11 14/7/11 13/9/11
f 5/25/12 15/27/12 14/7/12
f 6/26/13 16/8/13 15/27/13
f 8/24/14 13/9/14 16/8/14
f 1/3/15 18/13/15 17/15/15
f 3/2/16 19/28/16 18/13/16
f 4/19/17 20/14/17 19/28/17
f 2/10/18 17/15/18 20/14/18
f 5/25/19 22/16/19 21/18/19
f 1/3/20 23/29/20 22/16/20
f 2/10/21 24/17/21 23/29/21
f 6/26/22 21/18/22 24/17/22
