# Blender 4.4.1
# www.blender.org
mtllib szoba.mtl
o Cube
v 15.000000 14.233174 -20.098515
v 15.000000 -15.766826 -20.098515
v 15.000000 14.233174 19.901485
v 15.000000 -15.766826 19.901485
v -15.000000 14.233174 -20.098515
v -15.000000 -15.766826 -20.098515
v -15.000000 14.233174 19.901485
v -15.000000 -15.766826 19.901485
v 15.000000 14.021042 -19.815672
v 15.000000 -15.554693 -19.815672
v 15.000000 14.021042 19.618643
v 15.000000 -15.554693 19.618643
v -14.826795 14.059969 -19.867575
v -14.826795 -15.593620 -19.867575
v -14.826795 14.059969 19.670546
v -14.826795 -15.593620 19.670546
vn -0.0000 1.0000 -0.0000
vn -0.0000 -0.0000 1.0000
vn -1.0000 -0.0000 -0.0000
vn -0.0000 -1.0000 -0.0000
vn -0.0000 -0.0000 -1.0000
vn -0.0013 -1.0000 -0.0000
vn -0.0017 -0.0000 -1.0000
vn 1.0000 -0.0000 -0.0000
vn -0.0013 1.0000 -0.0000
vn -0.0017 -0.0000 1.0000
vt 0.875000 0.500000
vt 0.625000 0.750000
vt 0.625000 0.500000
vt 0.375000 1.000000
vt 0.375000 0.750000
vt 0.625000 0.000000
vt 0.375000 0.250000
vt 0.375000 0.000000
vt 0.375000 0.500000
vt 0.125000 0.750000
vt 0.125000 0.500000
vt 0.625000 0.250000
vt 0.875000 0.750000
vt 0.625000 1.000000
s 0
usemtl Material
f 5/1/1 3/2/1 1/3/1
f 3/2/2 8/4/2 4/5/2
f 7/6/3 6/7/3 8/8/3
f 2/9/4 8/10/4 6/11/4
f 5/12/5 2/9/5 6/7/5
f 11/2/6 13/1/6 9/3/6
f 16/4/7 11/2/7 12/5/7
f 14/7/8 15/6/8 16/8/8
f 16/10/9 10/9/9 14/11/9
f 10/9/10 13/12/10 14/7/10
f 1/3/8 10/9/8 2/9/8
f 4/5/8 11/2/8 3/2/8
f 3/2/8 9/3/8 1/3/8
f 2/9/8 12/5/8 4/5/8
f 5/1/1 7/13/1 3/2/1
f 3/2/2 7/14/2 8/4/2
f 7/6/3 5/12/3 6/7/3
f 2/9/4 4/5/4 8/10/4
f 5/12/5 1/3/5 2/9/5
f 11/2/6 15/13/6 13/1/6
f 16/4/7 15/14/7 11/2/7
f 14/7/8 13/12/8 15/6/8
f 16/10/9 12/5/9 10/9/9
f 10/9/10 9/3/10 13/12/10
f 1/3/8 9/3/8 10/9/8
f 4/5/8 12/5/8 11/2/8
f 3/2/8 11/2/8 9/3/8
f 2/9/8 10/9/8 12/5/8
o Cube.001
v 14.631634 -15.716178 19.798700
v 14.631634 14.283822 19.798700
v 14.631634 -15.716178 -10.201300
v 14.631634 14.283822 -10.201300
v 15.031633 -15.716178 19.798700
v 15.031633 14.283822 19.798700
v 15.031633 -15.716178 -10.201300
v 15.031633 14.283822 -10.201300
v 14.633943 -15.542973 19.625494
v 14.633943 14.110617 19.625494
v 14.633943 -15.542973 -10.028095
v 14.633943 14.110617 -10.028095
v 15.029325 -15.542973 19.625494
v 15.029325 14.110617 19.625494
v 15.029325 -15.542973 -10.028095
v 15.029325 14.110617 -10.028095
vn -1.0000 -0.0000 -0.0000
vn -0.0000 -0.0000 -1.0000
vn 1.0000 -0.0000 -0.0000
vn -0.0000 -0.0000 1.0000
vn -0.0000 -1.0000 -0.0000
vn -0.0000 1.0000 -0.0000
vt 0.625000 0.000000
vt 0.375000 0.250000
vt 0.375000 0.000000
vt 0.625000 0.250000
vt 0.375000 0.500000
vt 0.625000 0.500000
vt 0.375000 0.750000
vt 0.625000 0.750000
vt 0.375000 1.000000
vt 0.125000 0.750000
vt 0.125000 0.500000
vt 0.875000 0.500000
vt 0.625000 1.000000
vt 0.875000 0.750000
s 0
f 18/15/11 19/16/11 17/17/11
f 20/18/12 23/19/12 19/16/12
f 24/20/13 21/21/13 23/19/13
f 22/22/14 17/23/14 21/21/14
f 23/19/15 17/24/15 19/25/15
f 20/26/16 22/22/16 24/20/16
f 27/16/13 26/15/13 25/17/13
f 31/19/14 28/18/14 27/16/14
f 29/21/11 32/20/11 31/19/11
f 25/23/12 30/22/12 29/21/12
f 25/24/16 31/19/16 27/25/16
f 30/22/15 28/26/15 32/20/15
f 18/15/11 20/18/11 19/16/11
f 20/18/12 24/20/12 23/19/12
f 24/20/13 22/22/13 21/21/13
f 22/22/14 18/27/14 17/23/14
f 23/19/15 21/21/15 17/24/15
f 20/26/16 18/28/16 22/22/16
f 27/16/13 28/18/13 26/15/13
f 31/19/14 32/20/14 28/18/14
f 29/21/11 30/22/11 32/20/11
f 25/23/12 26/27/12 30/22/12
f 25/24/16 29/21/16 31/19/16
f 30/22/15 26/28/15 28/26/15
