# Blender 4.4.1
# www.blender.org
mtllib tetoCsapott.mtl
o Cube
v 35.000000 1.999997 -45.000000
v 35.000000 -2.000003 -45.000000
v 35.000000 2.000003 45.000000
v 35.000000 -1.999997 45.000000
v -35.000000 1.999997 -45.000000
v -35.000000 -2.000003 -45.000000
v -35.000000 2.000003 45.000000
v -35.000000 -1.999997 45.000000
v 35.118885 2.891169 -44.999996
v 34.641735 -1.018055 -44.999996
v 35.118885 2.891175 44.999996
v 34.641735 -1.018049 44.999996
v -34.641735 5.336934 -44.999996
v -35.118885 1.427711 -44.999996
v -34.641735 5.336940 44.999996
v -35.118885 1.427717 44.999996
vn -0.0000 -1.0000 -0.0000
vn -0.0000 -0.0000 -1.0000
vn 1.0000 -0.0000 -0.0000
vn -0.0000 1.0000 -0.0000
vn -1.0000 -0.0000 -0.0000
vn -0.0000 -0.0000 1.0000
vn 0.0350 0.9994 -0.0000
vn -0.9926 0.1212 -0.0000
vn -0.0350 -0.9994 -0.0000
vn 0.9926 -0.1212 -0.0000
vt 0.625000 0.750000
vt 0.875000 0.500000
vt 0.625000 0.500000
vt 0.375000 1.000000
vt 0.375000 0.750000
vt 0.375000 0.250000
vt 0.625000 0.000000
vt 0.375000 0.000000
vt 0.125000 0.750000
vt 0.375000 0.500000
vt 0.125000 0.500000
vt 0.625000 0.250000
vt 0.625000 1.000000
vt 0.875000 0.750000
s 1
usemtl Material.001
f 3/1/1 5/2/1 1/3/1
f 8/4/2 3/1/2 4/5/2
f 6/6/3 7/7/3 8/8/3
f 8/9/4 2/10/4 6/11/4
f 4/5/5 1/3/5 2/10/5
f 2/10/6 5/12/6 6/6/6
f 13/2/7 11/1/7 9/3/7
f 12/5/6 15/13/6 16/4/6
f 15/7/8 14/6/8 16/8/8
f 10/10/9 16/9/9 14/11/9
f 9/3/10 12/5/10 10/10/10
f 13/12/2 10/10/2 14/6/2
f 3/1/1 7/14/1 5/2/1
f 8/4/2 7/13/2 3/1/2
f 6/6/3 5/12/3 7/7/3
f 8/9/4 4/5/4 2/10/4
f 4/5/5 3/1/5 1/3/5
f 2/10/6 1/3/6 5/12/6
f 13/2/7 15/14/7 11/1/7
f 12/5/6 11/1/6 15/13/6
f 15/7/8 13/12/8 14/6/8
f 10/10/9 12/5/9 16/9/9
f 9/3/10 11/1/10 12/5/10
f 13/12/2 9/3/2 10/10/2
